<svg width="88" height="85" fill="none" xmlns="http://www.w3.org/2000/svg"><g filter="url(#filter0_d)"><path d="M47.2 65.6h-3.8v9.9h3.8v-9.9z" fill="#1A2121"/><path d="M63.1 41.6c0 11.1-9 20.1-20.1 20.1-11.1 0-20.1-9-20.1-20.1 0-11.1 9-20.1 20.1-20.1 11.1 0 20.1 9 20.1 20.1z" fill="#8ADDFF"/><path d="M41 8c-3.2 0-5.8 2.6-5.8 5.8v3.1h11.6v-3.1c0-3.3-2.6-5.8-5.8-5.8z" fill="#00B8AC"/><path d="M45 4c0 2.2-1.8 4-4 4s-4-1.8-4-4 1.8-4 4-4 4 1.8 4 4z" fill="#F9B59D"/><path d="M27.8 41.1c0 2.7 1.1 4.1 3.4 4.1.4 0 .8 0 1.2-.1.4-.1.8-.2 1.3-.4.4.9.7 1.9.8 2.8-.4.1-.7.3-1 .3-.3.1-.6.2-.9.2-.3 0-.6.1-.9.1h-.9c-1.1 0-2-.2-2.9-.5-.8-.3-1.5-.8-2.1-1.5-.6-.6-1-1.4-1.3-2.2-.3-.9-.4-1.8-.4-2.8 0-1 .1-2 .4-2.8.3-.9.7-1.6 1.3-2.3.6-.6 1.2-1.1 2.1-1.5.8-.4 1.7-.5 2.8-.5.6 0 1.2 0 1.7.1s1.2.3 1.8.5c0 .5-.1 1-.3 1.5-.2.5-.3.9-.5 1.3-.3-.1-.5-.2-.7-.2-.2-.1-.4-.1-.6-.2-.2 0-.4-.1-.6-.1h-.6c-1 0-1.8.3-2.4 1-.4.8-.7 1.8-.7 3.2zm8.4-6.8c.6-.1 1.2-.1 1.7-.2s1.1-.1 1.7-.1c.7 0 1.4.1 2.1.2.7.1 1.3.4 1.9.7.5.3 1 .8 1.3 1.4.3.6.5 1.3.5 2.2 0 .5-.1.9-.2 1.3s-.2.7-.4 1c-.2.3-.4.5-.6.8l-.6.6 3 5.9c-.3.1-.6.1-1 .1h-1.9c-.3 0-.6-.1-.9-.1l-2.7-6.3.2-.1c.2-.1.3-.2.5-.4s.4-.4.5-.6c.2-.2.3-.5.4-.8.1-.3.2-.6.2-1 0-.6-.2-1.1-.5-1.4-.4-.3-.8-.4-1.3-.4h-.5v10.8c-.7.1-1.2.2-1.7.2s-1-.1-1.7-.2V34.3zm12.2 0c.3 0 .6-.1.9-.1H51c.3 0 .6.1.8.1l2.7 7.1 2.8-7.1c.3 0 .5-.1.8-.1h1.6c.3 0 .6.1.8.1l.6 13.6c-.2 0-.4.1-.7.1-.2 0-.6.1-1 .1s-1-.1-1.6-.2l-.3-7.9-2.1 5.2c-.2 0-.5.1-.7.1h-1.2c-.2 0-.4-.1-.6-.1L51 40.1l-.2 7.8c-.5.1-1 .2-1.5.2-.4 0-1-.1-1.5-.2l.6-13.6z" fill="#18979E"/><path d="M54.6 68.3v3.5c8.5-3.3 15.3-10.1 18.6-18.6h-3.5c-3 6.7-8.4 12.2-15.1 15.1zM31.4 14.9v-3.5C22.9 14.7 16.1 21.5 12.8 30h3.5c2.9-6.7 8.4-12.2 15.1-15.1zM16.3 53.2h-3.5c3.3 8.5 10.1 15.3 18.6 18.6v-3.5c-6.7-2.9-12.2-8.4-15.1-15.1zM69.7 30h3.5c-3.3-8.5-10.1-15.3-18.6-18.6v3.5c6.7 2.9 12.1 8.4 15.1 15.1z" fill="#24BFFF"/><path d="M74.6 56.3l-7.9-3.1 6.5-5 1.4 8.1zM57.4 9.8l-3.1 8-4.9-6.5 8-1.5zM28.9 73.3l8-3.1-6.5-4.9-1.5 8zM11.2 27.2l8 3.1-6.6 4.9-1.4-8z" fill="#1B8FBF"/><path d="M51.7 63.6H39c-.2 0-.4.2-.4.4v3c0 .2.2.4.4.4h12.7c.2 0 .4-.2.4-.4v-3c.1-.2-.1-.4-.4-.4z" fill="#5D7A7F"/><path d="M46.1 65.6c0 .4-.4.8-.8.8s-.8-.4-.8-.8.4-.8.8-.8c.5-.1.8.3.8.8z" fill="#8ADDFF"/><path d="M51.7 68.3H39c-.2 0-.4.2-.4.4v3c0 .2.2.4.4.4h12.7c.2 0 .4-.2.4-.4v-3c.1-.2-.1-.4-.4-.4z" fill="#34595F"/><path d="M46.1 70.2c0 .4-.4.8-.8.8s-.8-.4-.8-.8.4-.8.8-.8c.5 0 .8.4.8.8z" fill="#8ADDFF"/><path d="M51.7 72.9H39c-.2 0-.4.2-.4.4v3c0 .2.2.4.4.4h12.7c.2 0 .4-.2.4-.4v-3c.1-.2-.1-.4-.4-.4z" fill="#334142"/><path d="M46.1 74.9c0 .4-.4.8-.8.8s-.8-.4-.8-.8.4-.8.8-.8c.5 0 .8.4.8.8z" fill="#8ADDFF"/><path d="M82.3 44.2H66V33.4c0-.3.2-.5.5-.5h15.3c.3 0 .5.2.5.5v10.8z" fill="#34595F"/><path d="M81.6 33.8h-15v9h15v-9z" fill="#8ADDFF"/><path d="M64.9 44.2v.3c0 1.1.9 2.1 2.1 2.1h14.3c1.1 0 2.1-.9 2.1-2.1v-.3H64.9z" fill="#334142"/><path d="M8.7 43.2H5.6v6.2h3.1v-6.2z" fill="#61E8CF"/><path d="M13.4 40.8h-3.1v8.6h3.1v-8.6z" fill="#00B8AC"/><path d="M18.1 38H15v11.4h3.1V38z" fill="#18979E"/><path d="M19.8 49.4H4v.6h15.8v-.6z" fill="#334142"/><path opacity=".47" d="M66.6 42.7l15-8.9h-15v8.9zm-31.4-29v3.1H41V7.9c-3.2.1-5.8 2.6-5.8 5.8z" fill="#fff"/></g><defs><filter id="filter0_d" x="0" y="0" width="87.4" height="84.7" filterUnits="userSpaceOnUse" color-interpolation-filters="sRGB"><feFlood flood-opacity="0" result="BackgroundImageFix"/><feColorMatrix in="SourceAlpha" values="0 0 0 0 0 0 0 0 0 0 0 0 0 0 0 0 0 0 127 0"/><feOffset dy="4"/><feGaussianBlur stdDeviation="2"/><feColorMatrix values="0 0 0 0 0 0 0 0 0 0 0 0 0 0 0 0 0 0 0.25 0"/><feBlend in2="BackgroundImageFix" result="effect1_dropShadow"/><feBlend in="SourceGraphic" in2="effect1_dropShadow" result="shape"/></filter></defs></svg>