<svg width="205" height="37" fill="none" xmlns="http://www.w3.org/2000/svg"><path d="M27.82 36h-7.03V21.375H7.077V36H.047V1.875h7.031v13.828H20.79V1.875h7.031V36zm4.664-12.914c0-2.516.485-4.758 1.453-6.727.97-1.968 2.36-3.492 4.172-4.57 1.828-1.078 3.946-1.617 6.352-1.617 3.422 0 6.21 1.047 8.367 3.14 2.172 2.094 3.383 4.938 3.633 8.532l.047 1.734c0 3.89-1.086 7.016-3.258 9.375-2.172 2.344-5.086 3.516-8.742 3.516-3.656 0-6.578-1.172-8.766-3.516-2.172-2.344-3.258-5.531-3.258-9.562v-.305zm6.774.492c0 2.406.453 4.25 1.36 5.531.905 1.266 2.202 1.899 3.89 1.899 1.64 0 2.922-.625 3.844-1.875.921-1.266 1.382-3.281 1.382-6.047 0-2.36-.46-4.188-1.382-5.484-.922-1.297-2.22-1.946-3.891-1.946-1.656 0-2.938.649-3.844 1.946-.906 1.28-1.36 3.273-1.36 5.976zm28.031-10.172c1.797-2.156 4.055-3.234 6.773-3.234 5.5 0 8.29 3.195 8.368 9.586V36h-6.774V19.945c0-1.453-.312-2.523-.937-3.21-.625-.704-1.664-1.055-3.117-1.055-1.985 0-3.422.765-4.313 2.297V36h-6.773V0h6.773v13.406zm19.195 9.68c0-2.516.485-4.758 1.454-6.727.968-1.968 2.359-3.492 4.171-4.57 1.829-1.078 3.946-1.617 6.352-1.617 3.422 0 6.211 1.047 8.367 3.14 2.172 2.094 3.383 4.938 3.633 8.532l.047 1.734c0 3.89-1.086 7.016-3.258 9.375-2.172 2.344-5.086 3.516-8.742 3.516-3.656 0-6.578-1.172-8.766-3.516-2.172-2.344-3.258-5.531-3.258-9.562v-.305zm6.774.492c0 2.406.453 4.25 1.36 5.531.905 1.266 2.202 1.899 3.89 1.899 1.64 0 2.922-.625 3.844-1.875.921-1.266 1.382-3.281 1.382-6.047 0-2.36-.461-4.188-1.382-5.484-.922-1.297-2.219-1.946-3.891-1.946-1.656 0-2.938.649-3.844 1.946-.906 1.28-1.36 3.273-1.36 5.976zm35.672-6.586a18.411 18.411 0 00-2.438-.187c-2.562 0-4.242.867-5.039 2.601V36h-6.773V10.64h6.398l.188 3.024c1.359-2.328 3.242-3.492 5.648-3.492.75 0 1.453.101 2.109.305l-.093 6.515zm14.484 19.477c-3.719 0-6.75-1.14-9.094-3.422-2.328-2.281-3.492-5.32-3.492-9.117v-.657c0-2.546.492-4.82 1.477-6.82.984-2.015 2.375-3.562 4.172-4.64 1.812-1.094 3.875-1.641 6.187-1.641 3.469 0 6.195 1.094 8.18 3.281 2 2.188 3 5.29 3 9.305v2.765h-16.149c.219 1.657.875 2.985 1.969 3.985 1.109 1 2.508 1.5 4.195 1.5 2.61 0 4.649-.945 6.118-2.836l3.328 3.726c-1.016 1.438-2.391 2.563-4.125 3.375-1.735.797-3.657 1.196-5.766 1.196zm-.773-20.813c-1.344 0-2.438.453-3.282 1.36-.828.906-1.359 2.203-1.593 3.89h9.422v-.539c-.032-1.5-.438-2.656-1.219-3.469-.781-.828-1.891-1.242-3.328-1.242zm25.617 15.352c1.25 0 2.265-.344 3.047-1.031.781-.688 1.187-1.602 1.218-2.743h6.352a8.75 8.75 0 01-1.406 4.735c-.922 1.422-2.188 2.531-3.797 3.328-1.594.781-3.36 1.172-5.297 1.172-3.625 0-6.484-1.149-8.578-3.446-2.094-2.312-3.141-5.5-3.141-9.562v-.445c0-3.907 1.039-7.024 3.117-9.352 2.079-2.328 4.93-3.492 8.555-3.492 3.172 0 5.711.906 7.617 2.719 1.922 1.796 2.899 4.195 2.93 7.195h-6.352c-.031-1.313-.437-2.375-1.218-3.188-.782-.828-1.813-1.242-3.094-1.242-1.578 0-2.773.578-3.586 1.735-.797 1.14-1.195 3-1.195 5.578v.703c0 2.61.398 4.484 1.195 5.625.797 1.14 2.008 1.71 3.633 1.71zM197.438 36c-.313-.61-.54-1.367-.68-2.273-1.641 1.828-3.774 2.742-6.399 2.742-2.484 0-4.547-.719-6.187-2.157-1.625-1.437-2.438-3.25-2.438-5.437 0-2.688.993-4.75 2.977-6.188 2-1.437 4.883-2.164 8.648-2.18h3.118v-1.452c0-1.172-.305-2.11-.915-2.813-.593-.703-1.539-1.055-2.835-1.055-1.141 0-2.039.274-2.696.82-.64.548-.961 1.298-.961 2.25h-6.773c0-1.468.453-2.827 1.359-4.077.906-1.25 2.188-2.227 3.844-2.93 1.656-.719 3.516-1.078 5.578-1.078 3.125 0 5.602.789 7.43 2.367 1.844 1.563 2.765 3.766 2.765 6.61V30.14c.016 2.406.352 4.226 1.008 5.46v.4h-6.843zm-5.602-4.71c1 0 1.922-.22 2.766-.657.843-.453 1.468-1.055 1.875-1.805v-4.36h-2.532c-3.39 0-5.195 1.173-5.414 3.516l-.023.399c0 .844.297 1.539.89 2.086.594.547 1.407.82 2.438.82z" fill="#fff"/></svg>