<svg width="600" height="502" fill="none" xmlns="http://www.w3.org/2000/svg"><g opacity=".3"><g opacity=".3"><path opacity=".3" d="M413.188 207.335c3.089-1.788 5.528-.325 5.528 3.252s-2.439 7.804-5.528 9.593c-3.089 1.788-5.528.325-5.528-3.252s2.601-7.804 5.528-9.593z" fill="url(#paint0_linear)"/><path opacity=".3" d="M413.513 207.498c-3.089 1.789-5.528 6.016-5.528 9.593 0 1.626.488 2.926 1.464 3.414-1.139-.488-1.789-1.788-1.789-3.739 0-3.577 2.439-7.805 5.528-9.593 1.626-.976 3.089-.976 4.065-.325-.976-.325-2.277-.163-3.74.65z" fill="#fff"/><path opacity=".3" d="M400.018 199.694c3.089-1.789 5.528-.325 5.528 3.252s-2.439 7.804-5.528 9.592c-3.089 1.789-5.528.325-5.528-3.252 0-3.576 2.439-7.804 5.528-9.592z" fill="url(#paint1_linear)"/><path opacity=".3" d="M386.524 191.89c3.089-1.789 5.528-.325 5.528 3.251 0 3.577-2.439 7.805-5.528 9.593-3.089 1.789-5.528.325-5.528-3.252 0-3.414 2.439-7.804 5.528-9.592z" fill="url(#paint2_linear)"/><path opacity=".3" d="M409.286 220.505l6.829 3.902c-.976-.65-1.626-1.788-1.626-3.577 0-3.577 2.439-7.804 5.528-9.592 1.463-.813 2.764-.976 3.902-.488l29.103 16.746-7.804 13.658-85.846-49.264c-3.74-2.114-5.041-6.992-2.927-10.731 2.114-3.74 6.991-5.04 10.731-2.927l23.25 13.332c-.976-.65-2.439-.65-4.065.326-3.089 1.788-5.528 6.015-5.528 9.592 0 1.789.651 3.089 1.626 3.577l6.829 3.902c-.976-.65-1.626-1.788-1.626-3.577 0-3.577 2.439-7.804 5.528-9.592 1.463-.813 2.764-.976 3.902-.488l6.829 3.902c-.976-.65-2.439-.65-4.065.325-3.089 1.789-5.528 6.016-5.528 9.593 0 1.788.65 3.089 1.626 3.577l6.828 3.902c-.975-.65-1.625-1.789-1.625-3.577 0-3.577 2.438-7.804 5.528-9.593 1.463-.813 2.763-.975 3.902-.487l6.503 3.739c-.975-.65-2.439-.65-4.065.325-3.089 1.789-5.528 6.016-5.528 9.593.163 2.114.813 3.252 1.789 3.902z" fill="#BCBEFF"/><path opacity=".3" d="M400.343 199.856c-3.089 1.789-5.528 6.016-5.528 9.593 0 1.626.488 2.927 1.464 3.414-1.138-.487-1.789-1.788-1.789-3.739 0-3.577 2.439-7.804 5.528-9.593 1.626-.975 3.089-.975 4.065-.325-.976-.325-2.276-.163-3.74.65zm-13.494-7.804c-3.089 1.789-5.528 6.016-5.528 9.593 0 1.626.488 2.926 1.464 3.414-1.138-.488-1.789-1.788-1.789-3.739 0-3.577 2.439-7.804 5.528-9.593 1.626-.975 3.089-.975 4.065-.325-.976-.163-2.276-.163-3.74.65z" fill="#fff"/><path opacity=".48" d="M420.179 211.238c-3.089 1.788-5.528 6.015-5.528 9.592 0 1.789.65 3.089 1.626 3.577l-6.829-3.902c-.975-.65-1.626-1.788-1.626-3.577 0-3.577 2.439-7.804 5.528-9.593 1.626-.975 2.927-.975 4.065-.325l6.666 3.902c-1.138-.65-2.439-.487-3.902.326z" fill="url(#paint3_linear)"/><path opacity=".48" d="M406.847 203.596c-3.089 1.788-5.528 6.016-5.528 9.593 0 1.788.65 3.089 1.626 3.576l-6.829-3.902c-.975-.65-1.626-1.788-1.626-3.577 0-3.576 2.439-7.804 5.528-9.592 1.626-.976 2.927-.976 4.065-.325l6.666 3.902c-.976-.651-2.276-.488-3.902.325z" fill="url(#paint4_linear)"/><path opacity=".48" d="M393.515 195.954c-3.089 1.789-5.528 6.016-5.528 9.593 0 1.788.651 3.089 1.626 3.577l-6.828-3.902c-.976-.651-1.626-1.789-1.626-3.577 0-3.577 2.438-7.804 5.528-9.593 1.626-.975 2.926-.975 4.064-.325l6.666 3.902c-1.138-.65-2.438-.65-3.902.325z" fill="url(#paint5_linear)"/></g><g opacity=".3"><path opacity=".3" d="M445.705 265.054v1.301l16.909 14.145 27.478 10.243 19.348-4.39 18.535-5.366 18.86-14.47.487-.325c0-1.138 0-2.276-.162-3.414 3.252-4.39 6.666-8.78 9.918-13.332 1.463 1.951 2.764 3.902 3.739 5.853l2.276-1.789v12.194c-.325 9.593-6.666 19.185-19.348 26.502-26.013 15.121-67.961 15.121-93.975.163-12.844-7.479-19.348-17.072-19.51-26.827v-12.357l2.438 1.951c.488-1.138 1.301-2.276 1.952-3.577 2.601 5.203 5.527 11.381 11.055 13.495z" fill="url(#paint6_linear)"/><path opacity=".3" d="M542.282 237.414c.325.163.651.325 1.138.65 5.854 3.415 10.406 7.317 13.658 11.382-3.252 4.389-6.666 8.779-9.918 13.332-.976-6.666-5.853-13.17-14.633-18.21-19.836-11.381-52.028-11.381-71.863.162-9.756 5.691-14.633 13.007-14.796 20.486-5.365-2.113-8.292-8.291-11.381-13.332 2.439-3.577 5.853-7.154 10.243-10.243l-2.276.488s15.608-13.495 16.259-13.657c.65-.163 31.867-8.455 31.867-8.455l35.281 3.089 16.421 14.308z" fill="url(#paint7_linear)"/><path opacity=".5" d="M531.389 236.601c19.835 11.381 19.835 29.916 0 41.46-19.836 11.543-52.028 11.544-71.864.162-19.835-11.381-19.835-29.916 0-41.459 19.836-11.544 52.028-11.707 71.864-.163z" fill="url(#paint8_linear)"/><path opacity=".48" d="M531.226 240.178c19.835 11.381 19.835 29.916 0 41.46-19.836 11.543-52.028 11.543-71.864.162-19.835-11.381-19.835-29.916 0-41.459 19.836-11.544 52.028-11.707 71.864-.163z" fill="url(#paint9_linear)"/><path opacity=".3" d="M543.42 226.196c-26.014-14.958-68.124-14.796-93.975.162s-25.851 39.346.162 54.304c26.014 14.958 68.124 14.796 93.976-.162 25.851-15.121 25.851-39.509-.163-54.304zm-11.056 6.34c19.836 11.382 19.836 29.916 0 41.46-19.835 11.544-52.028 11.544-71.863.163-19.836-11.381-19.836-29.916 0-41.46 19.835-11.544 51.865-11.544 71.863-.163z" fill="#BCBEFF"/><path opacity=".3" d="M543.42 226.196c-26.014-14.958-68.124-14.796-93.975.162s-25.851 39.346.162 54.304c26.014 14.958 68.124 14.796 93.976-.162 25.851-15.121 25.851-39.509-.163-54.304zm-11.056 6.34c19.836 11.382 19.836 29.916 0 41.46-19.835 11.544-52.028 11.544-71.863.163-19.836-11.381-19.836-29.916 0-41.46 19.835-11.544 51.865-11.544 71.863-.163z" fill="#BCBEFF"/><g opacity=".3" fill="#fff"><path opacity=".3" d="M449.121 279.524c26.014 14.958 68.124 14.796 93.975-.162 15.934-9.268 22.112-21.95 18.372-33.981 4.39 12.194-1.625 25.526-18.047 34.956-26.014 15.121-67.961 15.121-93.975.163-9.918-5.691-16.096-12.845-18.535-20.324 2.601 7.154 8.617 13.983 18.21 19.348z"/><path opacity=".3" d="M460.177 231.724c19.836-11.544 52.028-11.544 71.864-.163 7.641 4.39 12.356 9.918 14.145 15.608-1.951-5.365-6.504-10.405-13.82-14.633-19.836-11.381-52.028-11.381-71.864.163-12.194 6.991-16.746 16.747-14.145 25.851-3.414-9.43 1.138-19.51 13.82-26.826z"/></g></g></g><path d="M330.756 456.907c-1.463 0-3.089-.326-4.39-1.138L125.734 339.844c-1.301-.65-1.952-1.789-1.952-2.764 0-.813.488-1.626 1.464-2.114l119.826-69.099c1.952-1.138 5.528-.976 7.805.325l200.632 115.925c1.301.65 1.951 1.788 1.951 2.764 0 .812-.488 1.625-1.463 2.113l-119.827 69.1c-.975.65-2.113.813-3.414.813zM126.059 339.356l200.632 115.925c2.114 1.138 5.203 1.3 7.154.325l119.827-69.1c.65-.487 1.138-.975 1.138-1.625 0-.813-.65-1.464-1.626-2.114L252.551 266.842c-2.113-1.138-5.202-1.3-7.153-.325l-119.827 69.1c-.65.487-1.138.975-1.138 1.626-.163.812.488 1.625 1.626 2.113z" fill="#78BBDC"/><g opacity=".3"><g opacity=".3"><path opacity=".3" d="M202.474 274.809c13.494 7.967 24.388 26.99 24.225 42.598 0 8.292-3.251 13.983-8.292 16.259l-43.248 24.713-34.956-59.995 44.549-25.201c.162-.162.325-.162.488-.325l.162-.162c4.553-2.114 10.406-1.626 17.072 2.113z" fill="url(#paint10_radial)"/><path opacity=".3" d="M202.474 274.809c7.967 4.715 15.121 13.332 19.511 22.762-6.504 3.577-19.836 10.731-44.874 24.388-6.341 3.415-12.032 6.666-17.234 9.918l-19.511-33.655 44.549-25.201c.163-.163.325-.163.488-.326l.162-.162c4.39-1.951 10.243-1.463 16.909 2.276z" fill="#0F054C"/></g><g opacity=".3"><path opacity=".3" d="M157.275 299.197c13.983 8.292 25.364 28.128 25.201 44.386 0 7.317-2.439 12.682-6.341 15.609h-.325c-.163.162-.325.162-.488.325-24.713 16.421-36.419 37.558-50.564 63.734l-3.902 7.479-66.499-118.201 8.13.488c29.428 1.626 50.077-3.089 76.741-15.608 4.552-2.764 11.056-2.277 18.047 1.788z" fill="url(#paint11_linear)"/><path opacity=".3" d="M62.487 313.017c29.428 1.626 50.076-3.089 76.741-15.608 4.715-2.764 11.056-2.277 18.209 1.788 7.967 4.715 15.121 13.332 19.836 22.762h-.162c-41.298 22.437-57.394 41.135-57.394 41.135l-36.582-9.43-11.706-11.381-16.747-29.754 7.805.488z" fill="#0F054C"/><path opacity=".3" d="M81.347 319.033c26.826 15.771 48.613 53.816 48.288 85.033-.163 15.608-5.691 26.501-14.47 31.542l-8.13 4.552 1.951-2.114c-7.966 1.952-17.722 0-28.29-6.178-26.827-15.771-48.613-53.816-48.288-85.033.163-12.194 3.577-21.624 9.267-27.477l-2.276.162 7.48-4.227h.162l.325-.162c8.617-4.715 20.648-3.903 33.98 3.902z" fill="url(#paint12_linear)"/><path opacity=".3" d="M75.493 322.284c26.827 15.771 48.614 53.817 48.289 85.034-.163 15.283-5.528 26.176-14.145 31.379l-1.301.65c-.488.163-.813.488-1.301.651l1.789-1.951c-7.967 1.951-17.722-.001-28.29-6.179-26.828-15.771-48.614-53.816-48.289-85.033.163-12.194 3.577-21.624 9.268-27.477l-2.114.162c9.105-6.015 21.95-5.527 36.094 2.764z" fill="#fff"/><path opacity=".3" d="M73.868 323.26c-26.827-15.771-48.939-3.252-49.101 27.965-.163 31.217 21.461 69.262 48.288 85.033 26.827 15.771 48.939 3.252 49.101-27.965.325-31.217-21.299-69.262-48.288-85.033z" fill="url(#paint13_linear)"/><g opacity=".3"><path opacity=".3" d="M73.867 330.251c-23.575-13.82-42.923-2.926-43.085 24.551-.163 27.314 18.86 60.807 42.435 74.627 23.575 13.82 42.923 2.927 43.086-24.55.162-27.478-18.86-60.808-42.436-74.628z" fill="url(#paint14_radial)"/><g opacity=".3"><path opacity=".3" d="M79.07 390.408l73.164-29.265-31.054-38.371-54.305 46.825 12.195 20.811z" fill="url(#paint15_linear)"/><path opacity=".3" d="M73.542 369.76c-4.715-2.764-8.617-.65-8.617 4.878 0 5.528 3.739 12.194 8.454 14.958 4.715 2.764 8.617.65 8.617-4.878.163-5.528-3.74-12.194-8.454-14.958z" fill="url(#paint16_radial)"/><path opacity=".3" d="M98.58 378.052c0-7.154-4.878-15.771-11.056-19.511-2.276-1.3-4.39-1.788-6.178-1.463l39.996-36.094 32.03 39.671-55.93 22.437c.65-1.138.975-2.927 1.138-5.04z" fill="#0F054C"/></g></g></g><g opacity=".3"><path opacity=".3" d="M179.387 226.033l-8.617-5.203h-.163l-.325-.163c-1.463-.65-3.252-.487-5.365.651l-1.301.813c-4.877 2.764-8.942 10.405-8.942 17.071v57.231l8.617 5.04 1.463-12.031 8.13-4.715v-57.719l6.503-.975z" fill="url(#paint17_linear)"/><path opacity=".3" d="M182.476 290.417l-19.186 11.056v-57.23c0-6.504 4.065-14.145 8.943-17.072l1.3-.813c4.878-2.764 8.943.163 8.943 6.666v57.393z" fill="url(#paint18_linear)"/><path opacity=".3" d="M159.388 255.624l-.325-.163c-.651-.325-1.138-.325-1.463 0l-2.114 1.301 1.463.325v12.357c0 1.626.976 3.577 2.276 4.227l-.487 1.626 2.113-1.301c.488-.162.813-.975.813-1.951v-12.031c0-1.789-.975-3.74-2.276-4.39z" fill="#0F054C"/><path opacity=".3" d="M157.274 274.972l-.325-.163c-1.301-.65-2.276-2.601-2.276-4.227V258.55c0-1.626.975-2.439 2.276-1.788l.325.162c1.301.651 2.276 2.602 2.276 4.228v12.031c0 1.789-1.138 2.439-2.276 1.789z" fill="#fff"/></g><path opacity=".4" d="M102.447 433.134c17.056-9.232 17.924-40.658 1.939-70.191-15.986-29.533-42.772-45.99-59.828-36.758-17.057 9.233-17.925 40.658-1.94 70.191 15.986 29.533 42.772 45.99 59.829 36.758z" fill="#42E8E0"/></g><path d="M454.972 364.882l-11.056-1.626-191.527-110.559c-2.277-1.3-5.528-1.463-7.479-.325L130.936 318.22l-6.991-.976v9.268c0 .813.65 1.788 1.788 2.439l200.633 115.924c2.276 1.301 5.528 1.463 7.479.325l119.827-69.099c.812-.488 1.3-1.138 1.3-1.951v-9.268z" fill="url(#paint19_linear)"/><path d="M125.896 319.683l200.632 115.925c2.277 1.3 5.528 1.463 7.479.325l119.827-69.1c1.951-1.138 1.626-3.089-.488-4.227L252.714 246.681c-2.276-1.3-5.528-1.463-7.479-.325l-119.827 69.1c-1.951 1.138-1.788 2.926.488 4.227z" fill="url(#paint20_linear)"/><path opacity=".3" d="M143.13 321.959l179.334 103.568c1.951 1.138 4.878 1.301 6.666.326l106.982-61.784c1.626-.975 1.464-2.764-.487-3.902L256.454 256.599c-1.951-1.138-4.878-1.3-6.666-.325l-106.983 61.783c-1.788 1.138-1.626 2.764.325 3.902z" fill="#3765A1"/><path d="M453.671 365.695l-119.826 69.1c-1.951 1.138-5.203.975-7.479-.325L125.733 318.545c-.975-.488-1.463-1.301-1.788-1.951-.326.975.325 2.114 1.788 2.927l200.633 115.924c2.276 1.301 5.528 1.463 7.479.325l119.826-69.099c1.138-.651 1.464-1.464 1.138-2.439-.162.65-.487 1.138-1.138 1.463z" fill="#fff"/><path d="M260.193 219.855l-38.046-21.787c-4.227-2.439-6.991-6.991-6.991-12.032v-63.083h.651v63.083c0 4.715 2.601 9.105 6.666 11.382l38.045 21.786-.325.651z" fill="#42E8E0"/><path d="M252.064 210.425l25.363-150.556-2.113-.813 3.089-1.788c.65-.326 1.463-.326 2.439.162l202.746 117.063c1.626.975 2.926 3.414 2.601 5.203l-25.526 151.693c-.163.813-.488 1.301-1.138 1.464l-2.927 1.788-.487-2.764h.162L254.828 215.465c-1.789-.813-3.09-3.252-2.764-5.04z" fill="url(#paint21_linear)"/><path d="M482.45 178.72l3.414-1.463c.326.813.488 1.788.488 2.439l-25.689 151.693c-.162.813-.487 1.301-1.138 1.464l-2.926 1.788-.488-2.764h.163l-10.243-5.853L482.45 178.72z" fill="url(#paint22_linear)"/><path d="M251.576 217.416l202.747 117.063c1.625.975 2.926.325 3.251-1.301L483.1 181.484c.326-1.788-.975-4.227-2.601-5.203L277.753 59.218c-1.626-.975-2.927-.325-3.252 1.301l-25.526 151.694c-.325 1.788.975 4.227 2.601 5.203z" fill="#3765A1"/><path opacity=".51" d="M276.94 62.145l203.721 117.551-25.688 152.181-203.559-117.55L276.94 62.145z" fill="#453C9E"/><path d="M124.107 289.279l11.056 5.853 110.884-64.059c1.789-1.138 5.04-.975 7.317.325l191.365 110.397c1.788-.976 10.243-5.04 10.243-5.04l-4.065 6.503a2.173 2.173 0 01-1.138 1.301l-116.9 67.474c-1.789 1.138-5.04.975-7.317-.326L129.797 298.709c-.812-.487-1.463-1.138-1.625-1.788l-4.065-7.642z" fill="url(#paint23_linear)"/><path d="M125.896 291.068l200.632 115.924c2.277 1.301 5.528 1.464 7.479.326l119.827-69.1c1.951-1.138 1.626-3.089-.488-4.227L252.714 218.066c-2.276-1.301-5.528-1.463-7.479-.325l-119.827 69.1c-1.951 1.138-1.788 2.926.488 4.227z" fill="url(#paint24_linear)"/><path d="M125.895 290.255l200.633 115.924c2.276 1.301 5.528 1.464 7.479.326l119.827-69.1c.65-.325 1.138-.813 1.138-1.463.162.813-.163 1.626-1.138 2.276l-119.827 69.1c-1.951 1.138-5.203.975-7.479-.326L125.895 291.068c-1.463-.813-1.951-1.951-1.788-2.927.163.813.65 1.463 1.788 2.114z" fill="#fff"/><g opacity=".15"><g opacity=".15"><path opacity=".15" d="M251.252 216.44l11.056 5.853 110.884-64.059c1.789-1.138 5.04-.975 7.316.325l191.366 110.397c1.788-.976 10.243-5.04 10.243-5.04l-4.065 6.503a2.176 2.176 0 01-1.138 1.301l-116.9 67.474c-1.789 1.138-5.041.975-7.317-.326L256.942 225.87c-.813-.487-1.463-1.138-1.626-1.788l-4.064-7.642z" fill="url(#paint25_linear)"/><path opacity=".15" d="M253.04 218.228l200.632 115.925c2.276 1.3 5.528 1.463 7.479.325l119.827-69.1c1.951-1.138 1.626-3.089-.488-4.227L379.858 145.226c-2.277-1.3-5.528-1.463-7.479-.325l-119.827 69.1c-1.951 1.138-1.789 3.089.488 4.227z" fill="url(#paint26_linear)"/><path opacity=".15" d="M580.327 260.989L379.695 145.065c-1.463-.813-3.252-1.139-5.04-.976 1.3.163 2.438.488 3.414.976l200.633 115.924c2.276 1.301 2.438 3.252.487 4.227l-119.501 69.262c-.651.326-1.464.651-2.439.651 1.463.162 2.926-.163 3.902-.651l119.827-69.099c1.788-1.138 1.626-3.089-.651-4.39z" fill="#fff"/></g><g opacity=".5" fill="#3765A1"><path opacity=".5" d="M358.071 198.393l-6.503-3.739c-.488-.326-1.463-.326-1.951 0l-7.154 4.227c-.488.325-.65.813-.163 1.138l6.504 3.739c.488.326 1.463.326 1.951 0l7.154-4.227c.65-.325.813-.813.162-1.138zm10.082 5.691l-6.504-3.74c-.487-.325-1.463-.325-1.951 0l-7.154 4.227c-.487.326-.65.813-.162 1.139l6.503 3.739c.488.325 1.464.325 1.951 0l7.154-4.227c.488-.325.651-.813.163-1.138zm9.917 5.69l-6.504-3.739c-.487-.325-1.463-.325-1.951 0l-7.153 4.227c-.488.325-.651.813-.163 1.138l6.504 3.74c.487.325 1.463.325 1.951 0l7.153-4.228c.651-.325.651-.813.163-1.138zm-7.642 7.642l-6.503-3.74c-.488-.325-1.463-.325-1.951 0l-6.016 3.577c-.488.325-.65.813-.162 1.138l6.503 3.74c.488.325 1.463.325 1.951 0l6.016-3.577c.65-.325.65-.813.162-1.138zm9.918 5.69l-6.503-3.739c-.488-.325-1.464-.325-1.951 0l-6.016 3.577c-.488.325-.65.813-.163 1.138l6.504 3.739c.488.326 1.463.326 1.951 0l6.016-3.577c.65-.325.65-.813.162-1.138zm9.917 5.853l-6.503-3.739c-.488-.325-1.463-.325-1.951 0l-6.016 3.577c-.488.325-.65.813-.162 1.138l6.503 3.739c.488.326 1.463.326 1.951 0l6.016-3.576c.65-.326.65-.813.162-1.139zm9.919 5.691l-6.503-3.739c-.488-.326-1.464-.326-1.951 0l-6.016 3.576c-.488.326-.65.813-.163 1.139l6.504 3.739c.488.325 1.463.325 1.951 0l6.016-3.577c.65-.325.813-.813.162-1.138zm10.08 5.691l-6.503-3.74c-.488-.325-1.463-.325-1.951 0l-6.016 3.577c-.488.325-.65.813-.162 1.138l6.503 3.74c.488.325 1.463.325 1.951 0l6.016-3.577c.488-.326.65-.813.162-1.138zm9.918 5.853l-6.504-3.74c-.488-.325-1.463-.325-1.951 0l-6.016 3.577c-.487.325-.65.813-.162 1.138l6.503 3.74c.488.325 1.464.325 1.951 0l6.016-3.577c.65-.325.65-.976.163-1.138zm9.918 5.69l-6.504-3.739c-.487-.325-1.463-.325-1.951 0l-6.015 3.577c-.488.325-.651.813-.163 1.138l6.504 3.739c.487.325 1.463.325 1.951 0l6.015-3.577c.651-.325.651-.813.163-1.138zm9.918 5.691l-6.504-3.74c-.488-.325-1.463-.325-1.951 0l-6.016 3.577c-.487.325-.65.813-.162 1.138l6.503 3.74c.488.325 1.464.325 1.951 0l6.016-3.577c.65-.325.65-.813.163-1.138zm9.918 5.69l-6.504-3.739c-.487-.325-1.463-.325-1.951 0l-6.015 3.577c-.488.325-.651.813-.163 1.138l6.504 3.739c.487.326 1.463.326 1.951 0l6.015-3.577c.651-.325.651-.812.163-1.138zm9.917 5.853l-6.503-3.739c-.488-.325-1.463-.325-1.951 0l-6.016 3.577c-.488.325-.65.813-.163 1.138l6.504 3.74c.488.325 1.463.325 1.951 0l6.016-3.577c.65-.326.65-.813.162-1.139zm-93.487-43.41l-6.503-3.74c-.488-.325-1.463-.325-1.951 0l-6.016 3.577c-.488.325-.65.813-.162 1.138l6.503 3.74c.488.325 1.463.325 1.951 0l6.016-3.577c.65-.488.65-.976.162-1.138zm-10.081-5.853l-6.503-3.74c-.488-.325-1.464-.325-1.951 0l-6.016 3.577c-.488.325-.65.813-.163 1.138l6.504 3.74c.488.325 1.463.325 1.951 0l6.016-3.577c.65-.325.65-.813.162-1.138zm-10.08-5.854l-13.82-7.966c-.488-.325-1.463-.325-1.951 0l-6.016 3.577c-.488.325-.65.813-.162 1.138l13.82 7.966c.487.326 1.463.326 1.951 0l6.015-3.576c.488-.326.651-.813.163-1.139zm-11.869 3.74l-11.218-6.504c-.488-.325-1.463-.325-1.951 0l-6.016 3.577c-.488.326-.65.813-.162 1.138l11.218 6.504c.488.325 1.463.325 1.951 0l6.016-3.577c.65-.325.813-.813.162-1.138zm41.947 13.657l-6.503-3.739c-.488-.325-1.464-.325-1.951 0l-6.016 3.577c-.488.325-.65.813-.163 1.138l6.504 3.739c.488.325 1.463.325 1.951 0l6.016-3.577c.65-.325.65-.813.162-1.138zm9.918 5.691l-6.504-3.74c-.487-.325-1.463-.325-1.951 0l-6.015 3.577c-.488.325-.651.813-.163 1.138l6.504 3.74c.487.325 1.463.325 1.951 0l6.015-3.577c.651-.325.651-.813.163-1.138zm9.919 5.69l-6.504-3.739c-.488-.325-1.463-.325-1.951 0l-6.016 3.577c-.487.325-.65.813-.162 1.138l6.503 3.739c.488.326 1.464.326 1.951 0l6.016-3.577c.65-.325.65-.812.163-1.138zm9.917 5.854l-6.504-3.74c-.487-.325-1.463-.325-1.951 0l-6.015 3.577c-.488.325-.651.813-.163 1.138l6.504 3.74c.487.325 1.463.325 1.951 0l6.015-3.577c.651-.326.651-.976.163-1.138zm9.919 5.69l-6.504-3.739c-.488-.326-1.463-.326-1.951 0l-6.016 3.576c-.487.326-.65.813-.162 1.139l6.503 3.739c.488.325 1.464.325 1.951 0l6.016-3.577c.65-.325.65-.813.163-1.138zm9.916 5.691l-6.503-3.74c-.488-.325-1.463-.325-1.951 0l-6.016 3.577c-.488.325-.65.813-.162 1.138l6.503 3.74c.488.325 1.463.325 1.951 0l6.016-3.577c.65-.325.65-.813.162-1.138zm9.918 5.69l-6.503-3.739c-.488-.325-1.464-.325-1.951 0l-6.016 3.577c-.488.325-.65.813-.163 1.138l6.504 3.739c.488.325 1.463.325 1.951 0l6.016-3.577c.65-.325.813-.813.162-1.138zm9.919 5.853l-6.504-3.739c-.488-.325-1.463-.325-1.951 0l-6.016 3.577c-.487.325-.65.813-.162 1.138l6.503 3.739c.488.326 1.463.326 1.951 0l6.016-3.577c.65-.325.813-.813.163-1.138zm10.08 5.691l-6.503-3.74c-.488-.325-1.464-.325-1.951 0l-6.016 3.577c-.488.325-.65.813-.163 1.138l6.504 3.74c.488.325 1.463.325 1.951 0l6.016-3.577c.65-.325.65-.813.162-1.138zm17.559 10.243l-13.983-8.13c-.487-.325-1.463-.325-1.951 0l-6.015 3.577c-.488.326-.651.813-.163 1.139l13.983 8.129c.487.325 1.463.325 1.951 0l6.015-3.577c.651-.325.651-.813.163-1.138zm-18.209 10.568l-11.869-6.829c-.488-.325-1.463-.325-1.951 0l-6.016 3.577c-.487.325-.65.813-.162 1.138l11.869 6.829c.487.325 1.463.325 1.951 0l6.015-3.577c.651-.325.651-.813.163-1.138zm-80.319-56.905l-6.503-3.74c-.488-.325-1.463-.325-1.951 0l-6.016 3.577c-.488.325-.65.813-.163 1.138l6.504 3.74c.488.325 1.463.325 1.951 0l6.016-3.577c.65-.326.65-.813.162-1.138zm-10.08-5.854l-6.503-3.739c-.488-.325-1.464-.325-1.951 0l-6.016 3.577c-.488.325-.65.813-.163 1.138l6.504 3.739c.488.326 1.463.326 1.951 0l6.016-3.576c.65-.326.65-.813.162-1.139zm-10.244-5.853l-6.503-3.739c-.488-.325-1.463-.325-1.951 0l-6.016 3.577c-.488.325-.65.813-.162 1.138l6.503 3.739c.488.325 1.463.325 1.951 0l6.016-3.577c.65-.325.65-.813.162-1.138zm-10.242-5.853l-6.503-3.739c-.488-.326-1.463-.326-1.951 0l-6.016 3.577c-.488.325-.65.812-.162 1.138l6.503 3.739c.488.325 1.463.325 1.951 0l6.016-3.577c.65-.488.813-.975.162-1.138zm40.484 23.25l-6.503-3.739c-.488-.326-1.464-.326-1.951 0l-6.016 3.576c-.488.326-.651.813-.163 1.139l6.504 3.739c.487.325 1.463.325 1.951 0l6.015-3.577c.651-.325.813-.813.163-1.138zm9.918 5.853l-6.503-3.739c-.488-.325-1.463-.325-1.951 0l-6.016 3.577c-.488.325-.65.813-.162 1.138l6.503 3.739c.488.325 1.463.325 1.951 0l6.016-3.577c.65-.487.813-.975.162-1.138zm10.08 5.691l-6.504-3.74c-.488-.325-1.463-.325-1.951 0l-6.016 3.577c-.488.325-.65.813-.162 1.138l6.503 3.74c.488.325 1.463.325 1.951 0l6.016-3.577c.65-.325.65-.813.163-1.138zm9.918 5.69l-6.503-3.739c-.488-.325-1.463-.325-1.951 0l-6.016 3.577c-.488.325-.65.813-.163 1.138l6.504 3.739c.488.325 1.463.325 1.951 0l6.016-3.577c.65-.325.65-.813.162-1.138zm9.918 5.691l-6.504-3.74c-.488-.325-1.463-.325-1.951 0l-6.016 3.577c-.487.325-.65.813-.162 1.138l6.503 3.74c.488.325 1.464.325 1.951 0l6.016-3.577c.65-.325.65-.813.163-1.138zm9.918 5.853l-6.503-3.74c-.488-.325-1.463-.325-1.951 0l-6.016 3.577c-.488.326-.65.813-.162 1.139l6.503 3.739c.488.325 1.463.325 1.951 0l6.016-3.577c.65-.325.65-.975.162-1.138zm9.918 5.691l-6.504-3.74c-.488-.325-1.463-.325-1.951 0l-6.016 3.577c-.487.325-.65.813-.162 1.138l6.503 3.74c.488.325 1.464.325 1.951 0l6.016-3.577c.65-.326.65-.813.163-1.138zm9.917 5.69l-6.504-3.739c-.487-.326-1.463-.326-1.951 0l-6.015 3.577c-.488.325-.651.812-.163 1.138l6.504 3.739c.487.325 1.463.325 1.951 0l6.015-3.577c.651-.325.651-.813.163-1.138zm9.918 5.691l-6.503-3.74c-.488-.325-1.464-.325-1.951 0l-6.016 3.577c-.488.325-.65.813-.163 1.138l6.504 3.74c.488.325 1.463.325 1.951 0l6.016-3.577c.65-.325.65-.813.162-1.138zm-113.323-54.792l-6.503-3.74c-.488-.325-1.464-.325-1.951 0l-6.016 3.577c-.488.325-.65.813-.163 1.138l6.504 3.74c.488.325 1.463.325 1.951 0l6.016-3.577c.65-.325.65-.813.162-1.138zM341 232.211l-6.504-3.739c-.487-.325-1.463-.325-1.951 0l-6.015 3.577c-.488.325-.651.813-.163 1.138l6.504 3.739c.487.325 1.463.325 1.951 0l6.015-3.577c.651-.325.651-.813.163-1.138zm-9.918-5.69l-6.503-3.74c-.488-.325-1.463-.325-1.951 0l-6.016 3.577c-.488.325-.65.813-.163 1.138l6.504 3.74c.488.325 1.463.325 1.951 0l6.016-3.577c.65-.325.65-.976.162-1.138zm-9.918-5.853l-6.504-3.74c-.487-.325-1.463-.325-1.951 0l-6.015 3.577c-.488.325-.651.813-.163 1.138l6.504 3.74c.487.325 1.463.325 1.951 0l6.015-3.577c.651-.326.651-.813.163-1.138zm-9.592 5.69l-6.504-3.739c-.487-.326-1.463-.326-1.951 0l-1.951 1.138c-.487.325-.65.813-.162 1.138l6.503 3.739c.488.325 1.464.325 1.951 0l1.951-1.138c.651-.325.813-.813.163-1.138zm13.007 7.479l-6.504-3.739c-.488-.326-1.463-.326-1.951 0l-1.951 1.138c-.488.325-.65.813-.162 1.138l6.503 3.739c.488.325 1.463.325 1.951 0l1.951-1.138c.65-.325.65-.813.163-1.138zm9.755 5.691l-6.504-3.74c-.487-.325-1.463-.325-1.951 0l-1.951 1.138c-.487.325-.65.813-.162 1.138l6.503 3.74c.488.325 1.464.325 1.951 0l1.951-1.138c.651-.325.651-.976.163-1.138zm9.918 5.69l-6.503-3.739c-.488-.325-1.463-.325-1.951 0l-1.951 1.138c-.488.325-.651.813-.163 1.138l6.504 3.739c.487.326 1.463.326 1.951 0l1.951-1.138c.65-.325.65-.975.162-1.138zm9.755 5.691l-6.503-3.74c-.488-.325-1.464-.325-1.951 0l-1.951 1.138c-.488.326-.651.813-.163 1.138l6.503 3.74c.488.325 1.464.325 1.951 0l1.951-1.138c.651-.488.813-.976.163-1.138zm54.954 31.704l-6.503-3.739c-.488-.325-1.463-.325-1.951 0l-1.951 1.138c-.488.325-.651.813-.163 1.138l6.504 3.739c.488.326 1.463.326 1.951 0l1.951-1.138c.65-.325.813-.813.162-1.138zm9.919 5.691l-6.504-3.74c-.488-.325-1.463-.325-1.951 0l-1.951 1.138c-.488.326-.65.813-.163 1.138l6.504 3.74c.488.325 1.463.325 1.951 0l1.951-1.138c.65-.325.65-.976.163-1.138zm9.755 5.69l-6.503-3.739c-.488-.325-1.464-.325-1.951 0l-1.952 1.138c-.487.325-.65.813-.162 1.138l6.503 3.74c.488.325 1.464.325 1.951 0l1.951-1.139c.651-.325.813-.975.163-1.138zm9.917 5.691l-6.503-3.74c-.488-.325-1.464-.325-1.951 0l-1.951 1.138c-.488.326-.651.813-.163 1.139l6.504 3.739c.487.325 1.463.325 1.951 0l1.951-1.138c.65-.325.65-.976.162-1.138zm-77.716-56.093l-6.503-3.739c-.488-.325-1.464-.325-1.951 0l-6.016 3.577c-.488.325-.651.813-.163 1.138l6.504 3.739c.487.326 1.463.326 1.951 0l6.015-3.577c.651-.325.651-.812.163-1.138zm9.917 5.691l-6.503-3.74c-.488-.325-1.463-.325-1.951 0l-6.016 3.577c-.488.325-.65.813-.163 1.138l6.504 3.74c.488.325 1.463.325 1.951 0l6.016-3.577c.65-.325.65-.813.162-1.138zm9.919 5.853l-6.504-3.739c-.488-.326-1.463-.326-1.951 0l-6.016 3.576c-.487.326-.65.813-.162 1.139l6.503 3.739c.488.325 1.464.325 1.951 0l6.016-3.577c.65-.325.65-.975.163-1.138zm9.917 5.691l-6.503-3.74c-.488-.325-1.463-.325-1.951 0l-6.016 3.577c-.488.325-.65.813-.163 1.138l6.504 3.74c.488.325 1.463.325 1.951 0l6.016-3.577c.65-.326.65-.813.162-1.138zm9.919 5.69l-6.504-3.739c-.488-.326-1.463-.326-1.951 0l-6.016 3.577c-.487.325-.65.812-.162 1.138l6.503 3.739c.488.325 1.463.325 1.951 0l6.016-3.577c.65-.325.65-.813.163-1.138zm9.917 5.691l-6.504-3.74c-.487-.325-1.463-.325-1.951 0l-6.015 3.577c-.488.325-.651.813-.163 1.138l6.503 3.74c.488.325 1.464.325 1.951 0l6.016-3.577c.651-.325.651-.813.163-1.138zm9.918 5.853l-6.504-3.74c-.488-.325-1.463-.325-1.951 0l-6.016 3.577c-.487.325-.65.813-.162 1.138l6.503 3.74c.488.325 1.464.325 1.951 0l6.016-3.577c.65-.325.813-.813.163-1.138zm9.917 5.69l-6.503-3.739c-.488-.325-1.463-.325-1.951 0l-6.016 3.577c-.488.325-.65.813-.162 1.138l6.503 3.739c.488.326 1.463.326 1.951 0l6.016-3.577c.65-.325.813-.812.162-1.138zm10.081 5.691l-6.503-3.74c-.488-.325-1.464-.325-1.952 0l-6.015 3.577c-.488.325-.651.813-.163 1.138l6.504 3.74c.487.325 1.463.325 1.951 0l6.015-3.577c.488-.325.651-.813.163-1.138zm-79.993-77.879l-19.023-10.894c-.488-.325-1.463-.325-1.951 0l-6.016 3.577c-.487.325-.65.813-.162 1.138l19.023 10.894c.487.325 1.463.325 1.951 0l6.015-3.577c.651-.325.651-.813.163-1.138zm121.94 70.562l-19.022-10.893c-.488-.325-1.464-.325-1.952 0l-6.015 3.577c-.488.325-.651.813-.163 1.138l19.023 10.894c.488.325 1.463.325 1.951 0l6.016-3.577c.65-.326.813-.976.162-1.139zm-18.372-22.762l-6.503-3.739c-.488-.325-1.463-.325-1.951 0l-7.154 4.227c-.488.325-.65.813-.163 1.138l6.504 3.74c.488.325 1.463.325 1.951 0l7.154-4.228c.65-.325.65-.813.162-1.138zm-72.189-41.622l-10.243-6.016c-.488-.325-1.463-.325-1.951 0l-7.154 4.228c-.487.325-.65.812-.162 1.138l10.243 6.015c.487.326 1.463.326 1.951 0l7.154-4.227c.65-.325.813-.813.162-1.138zm62.596 36.094l-10.243-6.015c-.487-.326-1.463-.326-1.951 0l-7.154 4.227c-.487.325-.65.813-.162 1.138l10.243 6.016c.488.325 1.463.325 1.951 0l7.154-4.228c.65-.325.65-.813.162-1.138zm-48.125-27.802l-10.243-6.016c-.488-.325-1.463-.325-1.951 0l-7.154 4.227c-.488.326-.65.813-.163 1.139l10.243 6.015c.488.325 1.464.325 1.951 0l7.154-4.227c.651-.325.651-.813.163-1.138z"/><path opacity=".5" d="M386.688 225.545l44.711 25.852c.488.325 1.464.325 1.951 0l7.317-4.228c.488-.325.488-.813 0-1.138l-44.712-25.851-9.267 5.365zm95.601 49.752l7.153 4.064c.488.326 1.138.163 1.626 0l2.927-1.788c.488-.325.488-.65 0-.975l-7.154-4.065c-.488-.325-1.138-.163-1.626 0l-2.926 1.788c-.488.325-.488.813 0 .976zm-10.081-5.691l7.154 4.065c.488.325 1.138.163 1.626 0l2.927-1.789c.488-.325.488-.65 0-.975l-7.154-4.065c-.488-.325-1.138-.162-1.626 0l-2.927 1.789c-.325.325-.487.65 0 .975zm-9.917-5.853l7.154 4.065c.487.325 1.138.162 1.625 0l2.927-1.789c.488-.325.488-.65 0-.975l-7.154-4.065c-.488-.325-1.138-.162-1.626 0l-2.926 1.789c-.325.325-.488.813 0 .975zm4.715 8.78l7.154 4.065c.487.325 1.138.162 1.625 0l2.927-1.789c.488-.325.488-.65 0-.975l-7.154-4.065c-.488-.325-1.138-.163-1.626 0l-2.926 1.788c-.325.325-.325.813 0 .976z"/></g></g><g opacity=".8" fill="#3765A1"><path opacity=".8" d="M218.082 278.223l-6.341-3.739c-.488-.325-.488-.813.163-1.138l7.479-4.39c.65-.325 1.463-.325 1.951-.163l6.341 3.74c.487.325.487.813-.163 1.138l-7.479 4.39c-.488.488-1.463.488-1.951.162zm9.918 5.691l-6.341-3.74c-.488-.325-.488-.813.162-1.138l7.479-4.39c.651-.325 1.464-.325 1.951-.162l6.341 3.739c.488.326.488.813-.162 1.138l-7.479 4.39c-.651.488-1.464.488-1.951.163zm9.755 5.69l-6.341-3.739c-.488-.325-.488-.813.163-1.138l7.479-4.39c.65-.325 1.463-.325 1.951-.163l6.341 3.74c.487.325.487.813-.163 1.138l-7.479 4.39c-.488.488-1.463.488-1.951.162zm13.657-4.715l-6.34-3.739c-.488-.325-.488-.813.162-1.138l6.341-3.577c.65-.325 1.463-.325 1.951-.163l6.341 3.74c.488.325.488.813-.163 1.138l-6.34 3.577c-.488.488-1.464.488-1.952.162zm9.918 5.691l-6.341-3.74c-.488-.325-.488-.812.162-1.138l6.341-3.577c.651-.325 1.464-.325 1.951-.162l6.341 3.739c.488.326.488.813-.162 1.138l-6.341 3.577c-.651.488-1.464.488-1.951.163zm9.755 5.691l-6.341-3.74c-.488-.325-.488-.813.163-1.138l6.341-3.577c.65-.325 1.463-.325 1.951-.163l6.341 3.74c.487.325.487.813-.163 1.138l-6.341 3.577c-.488.488-1.463.488-1.951.163zm9.918 5.69l-6.341-3.739c-.487-.326-.487-.813.163-1.139l6.341-3.576c.65-.326 1.463-.326 1.951-.163l6.341 3.739c.488.326.488.813-.163 1.139l-6.341 3.577c-.65.487-1.463.487-1.951.162zm9.756 5.691l-6.341-3.74c-.488-.325-.488-.813.162-1.138l6.341-3.577c.651-.325 1.464-.325 1.951-.162l6.341 3.739c.488.325.488.813-.162 1.138l-6.341 3.577c-.488.488-1.464.488-1.951.163zm9.916 5.69l-6.341-3.739c-.487-.325-.487-.813.163-1.138l6.341-3.577c.65-.326 1.463-.325 1.951-.163l6.341 3.74c.488.325.488.813-.163 1.138l-6.341 3.577c-.65.325-1.463.487-1.951.162zm9.756 5.691l-6.341-3.74c-.487-.325-.487-.813.163-1.138l6.341-3.577c.65-.325 1.463-.325 1.951-.162l6.341 3.739c.488.325.488.813-.163 1.138l-6.341 3.577c-.487.325-1.463.488-1.951.163zm9.918 5.69l-6.341-3.739c-.488-.325-.488-.813.163-1.138l6.341-3.577c.65-.325 1.463-.325 1.951-.163l6.341 3.74c.487.325.487.813-.163 1.138l-6.341 3.577c-.65.325-1.463.487-1.951.162zm9.755 5.691l-6.341-3.74c-.487-.325-.487-.813.163-1.138l6.341-3.577c.65-.325 1.463-.325 1.951-.162l6.341 3.739c.488.325.488.813-.163 1.138l-6.341 3.577c-.487.325-1.463.488-1.951.163zm9.918 5.69l-6.341-3.739c-.488-.325-.488-.813.163-1.138l6.341-3.577c.65-.325 1.463-.325 1.951-.163l6.341 3.74c.487.325.487.813-.163 1.138l-6.341 3.577c-.65.325-1.463.325-1.951.162zm-74.14-53.816l-6.34-3.739c-.488-.326-.488-.813.162-1.139l6.341-3.576c.65-.326 1.463-.326 1.951-.163l6.341 3.739c.488.326.488.813-.163 1.139l-6.341 3.576c-.487.326-1.463.326-1.951.163zm-9.918-5.853l-6.341-3.74c-.487-.325-.487-.813.163-1.138l6.341-3.577c.65-.325 1.463-.325 1.951-.162l6.341 3.739c.488.325.488.813-.163 1.138l-6.341 3.577c-.65.488-1.463.488-1.951.163zm-10.08-5.691l-13.657-7.966c-.488-.326-.488-.813.163-1.139l6.341-3.576c.65-.326 1.463-.326 1.951-.163l13.657 7.967c.488.325.488.813-.163 1.138l-6.341 3.577c-.487.325-1.463.488-1.951.162zm6.992-6.991l-11.056-6.503c-.488-.326-.488-.813.162-1.139l6.341-3.576c.65-.326 1.463-.326 1.951-.163l11.056 6.503c.488.326.488.813-.163 1.139l-6.34 3.577c-.488.325-1.464.325-1.951.162zm22.924 24.226l-6.341-3.74c-.487-.325-.487-.813.163-1.138l6.341-3.577c.65-.325 1.463-.325 1.951-.163l6.341 3.74c.488.325.488.813-.163 1.138l-6.341 3.577c-.65.325-1.463.325-1.951.163zm9.756 5.69l-6.341-3.739c-.488-.326-.488-.813.162-1.138l6.341-3.577c.651-.326 1.464-.326 1.951-.163l6.341 3.74c.488.325.488.812-.162 1.138l-6.341 3.577c-.488.325-1.463.325-1.951.162zm9.917 5.528l-6.341-3.739c-.487-.326-.487-.813.163-1.139l6.341-3.576c.65-.326 1.463-.326 1.951-.163l6.341 3.739c.488.326.488.813-.163 1.139l-6.341 3.577c-.65.487-1.463.487-1.951.162zm9.756 5.691l-6.341-3.74c-.488-.325-.488-.813.162-1.138l6.341-3.577c.651-.325 1.463-.325 1.951-.162l6.341 3.739c.488.325.488.813-.162 1.138l-6.341 3.577c-.488.488-1.464.488-1.951.163zm9.917 5.69l-6.34-3.739c-.488-.325-.488-.813.162-1.138l6.341-3.577c.65-.326 1.463-.326 1.951-.163l6.341 3.74c.488.325.488.813-.163 1.138l-6.341 3.577c-.65.487-1.463.487-1.951.162zm9.756 5.691l-6.341-3.74c-.487-.325-.487-.813.163-1.138l6.341-3.577c.65-.325 1.463-.325 1.951-.162l6.341 3.739c.488.325.488.813-.163 1.138l-6.341 3.577c-.487.488-1.463.488-1.951.163zm9.917 5.69l-6.341-3.739c-.488-.325-.488-.813.163-1.138l6.341-3.577c.65-.325 1.463-.325 1.951-.163l6.341 3.74c.487.325.487.813-.163 1.138l-6.341 3.577c-.65.487-1.463.487-1.951.162zm9.755 5.691l-6.341-3.74c-.488-.325-.488-.813.163-1.138l6.34-3.577c.651-.325 1.464-.325 1.951-.162l6.341 3.739c.488.325.488.813-.162 1.138l-6.341 3.577c-.488.488-1.463.488-1.951.163zm9.919 5.69l-6.341-3.739c-.488-.325-.488-.813.162-1.138l6.341-3.577c.651-.325 1.464-.325 1.951-.163l6.341 3.74c.488.325.488.813-.162 1.138l-6.341 3.577c-.651.488-1.463.488-1.951.162zm17.396 10.081l-13.82-7.967c-.488-.325-.488-.813.163-1.138l6.341-3.577c.65-.325 1.463-.325 1.951-.163l13.82 7.967c.487.325.487.813-.163 1.138l-6.341 3.577c-.488.488-1.301.488-1.951.163zm19.186-11.056l-11.706-6.829c-.488-.325-.488-.813.163-1.138l6.34-3.577c.651-.325 1.464-.325 1.951-.162l11.707 6.828c.487.325.487.813-.163 1.138l-6.341 3.577c-.488.488-1.463.488-1.951.163zm-98.04-45.524l-6.341-3.74c-.488-.325-.488-.813.162-1.138l6.341-3.577c.65-.325 1.463-.325 1.951-.163l6.341 3.74c.488.325.488.813-.163 1.138l-6.34 3.577c-.651.325-1.464.488-1.951.163zm-10.081-5.854l-6.341-3.739c-.488-.325-.488-.813.162-1.138l6.341-3.577c.651-.325 1.464-.325 1.951-.163l6.341 3.74c.488.325.488.813-.162 1.138l-6.341 3.577c-.651.488-1.464.488-1.951.162zm-10.08-5.853l-6.341-3.739c-.488-.325-.488-.813.162-1.138l6.341-3.577c.651-.325 1.463-.325 1.951-.163l6.341 3.74c.488.325.488.813-.162 1.138l-6.341 3.577c-.651.487-1.464.487-1.951.162zm-10.08-5.853l-6.341-3.739c-.488-.326-.488-.813.162-1.139l6.341-3.576c.65-.326 1.463-.326 1.951-.163l6.341 3.739c.488.326.488.813-.162 1.139l-6.341 3.576c-.651.488-1.464.488-1.951.163zm39.996 23.25l-6.341-3.739c-.488-.326-.488-.813.163-1.139l6.34-3.576c.651-.326 1.464-.326 1.951-.163l6.341 3.739c.488.326.488.813-.162 1.139l-6.341 3.576c-.488.326-1.463.488-1.951.163zm9.918 5.691l-6.341-3.74c-.488-.325-.488-.813.162-1.138l6.341-3.577c.651-.325 1.463-.325 1.951-.163l6.341 3.74c.488.325.488.813-.162 1.138l-6.341 3.577c-.651.325-1.464.325-1.951.163zm9.755 5.69l-6.341-3.739c-.488-.326-.488-.813.163-1.138l6.341-3.577c.65-.326 1.463-.326 1.951-.163l6.341 3.74c.487.325.487.812-.163 1.138l-6.341 3.577c-.488.325-1.463.325-1.951.162zm9.918 5.691l-6.341-3.74c-.488-.325-.488-.813.162-1.138l6.341-3.577c.651-.325 1.464-.325 1.951-.162l6.341 3.739c.488.325.488.813-.162 1.138l-6.341 3.577c-.651.325-1.463.325-1.951.163zm9.755 5.528l-6.341-3.74c-.488-.325-.488-.813.162-1.138l6.341-3.577c.651-.325 1.463-.325 1.951-.162l6.341 3.739c.488.325.488.813-.162 1.138l-6.179 3.74c-.65.325-1.626.325-2.113 0zm9.917 5.69l-6.341-3.739c-.487-.325-.487-.813.163-1.138l6.341-3.577c.65-.325 1.463-.326 1.951-.163l6.341 3.74c.488.325.488.813-.163 1.138l-6.341 3.577c-.65.487-1.463.487-1.951.162zm9.755 5.691l-6.341-3.74c-.487-.325-.487-.813.163-1.138l6.341-3.577c.65-.325 1.463-.325 1.951-.162l6.341 3.739c.488.325.487.813-.163 1.138l-6.341 3.577c-.488.488-1.463.488-1.951.163zm9.919 5.69l-6.341-3.739c-.488-.325-.488-.813.163-1.138l6.34-3.577c.651-.325 1.464-.325 1.952-.163l6.34 3.74c.488.325.488.813-.162 1.138l-6.341 3.577c-.65.488-1.463.488-1.951.162zm9.755 5.691l-6.341-3.74c-.488-.325-.488-.813.162-1.138l6.341-3.577c.651-.325 1.464-.325 1.951-.162l6.341 3.739c.488.325.488.813-.162 1.138l-6.341 3.577c-.488.488-1.463.488-1.951.163zm-93.65-65.198l-6.341-3.739c-.488-.325-.488-.813.162-1.138l6.341-3.577c.651-.325 1.464-.325 1.951-.163l6.341 3.74c.488.325.488.813-.162 1.138l-6.341 3.577c-.651.488-1.464.488-1.951.162zm-9.755-5.528l-6.341-3.739c-.488-.325-.488-.813.162-1.138l6.341-3.577c.651-.325 1.464-.325 1.951-.163l6.341 3.74c.488.325.488.813-.162 1.138l-6.341 3.577c-.651.325-1.463.325-1.951.162zm-9.919-5.69l-6.341-3.74c-.487-.325-.487-.813.163-1.138l6.341-3.577c.65-.325 1.463-.325 1.951-.162l6.341 3.739c.488.325.488.813-.163 1.138l-6.341 3.577c-.487.325-1.3.488-1.951.163zm-9.755-5.691l-6.341-3.739c-.488-.325-.488-.813.163-1.138l6.341-3.577c.65-.325 1.463-.325 1.951-.163l6.34 3.74c.488.325.488.813-.162 1.138l-6.341 3.577c-.488.488-1.463.488-1.951.162zm10.081-5.853l-6.341-3.739c-.487-.325-.487-.813.163-1.138l2.114-1.139c.65-.325 1.463-.325 1.951-.162l6.34 3.739c.488.326.488.813-.162 1.139l-2.114 1.138c-.487.487-1.463.487-1.951.162zm12.845 7.479l-6.341-3.739c-.488-.325-.488-.813.162-1.138l2.114-1.139c.65-.325 1.463-.325 1.951-.162l6.341 3.739c.488.326.488.813-.163 1.139l-2.113 1.138c-.651.325-1.464.487-1.951.162zm9.755 5.528l-6.341-3.739c-.488-.325-.488-.813.162-1.138l2.114-1.139c.65-.325 1.463-.325 1.951-.162l6.341 3.739c.488.326.488.813-.163 1.139l-2.113 1.138c-.651.487-1.464.487-1.951.162zm9.755 5.691l-6.341-3.74c-.488-.325-.488-.813.163-1.138l2.113-1.138c.651-.325 1.464-.325 1.951-.163l6.341 3.74c.488.325.488.813-.162 1.138l-2.114 1.138c-.65.488-1.463.488-1.951.163zm9.755 5.69l-6.341-3.739c-.488-.325-.488-.813.162-1.138l2.114-1.138c.65-.326 1.463-.326 1.951-.163l6.341 3.739c.488.326.488.813-.163 1.139l-2.113 1.138c-.651.325-1.464.325-1.951.162zm54.304 31.38l-6.341-3.74c-.488-.325-.488-.813.162-1.138l2.114-1.138c.65-.325 1.463-.325 1.951-.163l6.341 3.74c.488.325.488.813-.163 1.138l-2.113 1.138c-.488.325-1.464.488-1.951.163zm9.755 5.528l-6.341-3.74c-.488-.325-.488-.813.162-1.138l2.114-1.138c.65-.325 1.463-.325 1.951-.163l6.341 3.74c.488.325.488.813-.163 1.138l-2.113 1.138c-.488.488-1.464.488-1.951.163zm9.755 5.69l-6.341-3.739c-.488-.326-.488-.813.163-1.139l2.113-1.138c.651-.325 1.463-.325 1.951-.162l6.341 3.739c.488.325.488.813-.162 1.138l-2.114 1.138c-.488.488-1.463.488-1.951.163zm9.755 5.691l-6.341-3.74c-.487-.325-.487-.813.163-1.138l2.114-1.138c.65-.325 1.463-.325 1.951-.163l6.34 3.74c.488.325.488.813-.162 1.138l-2.114 1.138c-.488.325-1.463.325-1.951.163zm-96.576-44.224l-6.341-3.74c-.488-.325-.488-.812.163-1.138l6.341-3.577c.65-.325 1.463-.325 1.951-.162l6.341 3.739c.487.326.487.813-.163 1.138l-6.341 3.577c-.488.488-1.463.488-1.951.163zm9.917 5.69l-6.34-3.739c-.488-.325-.488-.813.162-1.138l6.341-3.577c.65-.325 1.463-.325 1.951-.163l6.341 3.74c.488.325.488.813-.163 1.138l-6.34 3.577c-.651.488-1.464.488-1.952.162zm9.756 5.691l-6.341-3.739c-.488-.326-.488-.813.163-1.139l6.341-3.576c.65-.326 1.463-.326 1.951-.163l6.341 3.739c.487.326.487.813-.163 1.139l-6.341 3.576c-.488.488-1.463.488-1.951.163zm9.918 5.691l-6.341-3.74c-.487-.325-.487-.813.163-1.138l6.341-3.577c.65-.325 1.463-.325 1.951-.162l6.341 3.739c.488.325.488.813-.163 1.138l-6.341 3.577c-.487.488-1.463.488-1.951.163zm9.756 5.69l-6.341-3.739c-.488-.326-.488-.813.162-1.138l6.341-3.577c.651-.326 1.463-.326 1.951-.163l6.341 3.74c.488.325.488.812-.162 1.138l-6.341 3.577c-.488.487-1.301.487-1.951.162zm9.917 5.691l-6.341-3.74c-.488-.325-.488-.813.162-1.138l6.341-3.577c.651-.325 1.464-.325 1.951-.162l6.341 3.739c.488.325.488.813-.162 1.138l-6.341 3.577c-.488.488-1.463.488-1.951.163zm9.755 5.69l-6.341-3.739c-.487-.325-.487-.813.163-1.138l6.341-3.577c.65-.325 1.463-.325 1.951-.163l6.341 3.74c.487.325.487.813-.163 1.138l-6.341 3.577c-.488.487-1.3.487-1.951.162zm9.918 5.691l-6.341-3.74c-.488-.325-.488-.813.163-1.138l6.341-3.577c.65-.325 1.463-.325 1.951-.162l6.341 3.739c.487.325.487.813-.163 1.138l-6.341 3.577c-.488.325-1.463.488-1.951.163zm9.755 5.69l-6.341-3.739c-.488-.325-.488-.813.162-1.138l6.341-3.577c.651-.325 1.464-.325 1.951-.163l6.341 3.74c.488.325.488.813-.162 1.138l-6.341 3.577c-.488.325-1.301.488-1.951.162zm-134.947-44.711l-18.697-10.893c-.488-.326-.488-.813.162-1.139l6.341-3.576c.651-.326 1.464-.326 1.951-.163l18.698 10.893c.488.325.488.813-.163 1.138l-6.341 3.577c-.487.325-1.3.325-1.951.163zm120.965 69.75L343.6 338.055c-.488-.325-.488-.812.162-1.138l6.341-3.577c.65-.325 1.463-.325 1.951-.162l18.698 10.893c.487.325.487.813-.163 1.138l-6.341 3.577c-.65.325-1.463.488-1.951.163zm-39.347-10.243l-6.341-3.74c-.487-.325-.487-.813.163-1.138l7.479-4.39c.65-.325 1.463-.325 1.951-.162l6.341 3.739c.488.325.488.813-.163 1.138l-7.479 4.39c-.65.488-1.463.488-1.951.163zm-71.537-41.135l-10.243-5.853c-.488-.325-.488-.813.163-1.138l7.479-4.39c.65-.325 1.463-.325 1.951-.162l10.243 5.853c.487.325.487.813-.163 1.138l-7.479 4.39c-.488.325-1.463.325-1.951.162zm61.945 35.769l-10.243-5.853c-.488-.325-.488-.813.162-1.138l7.479-4.39c.651-.325 1.464-.325 1.951-.162l10.243 5.853c.488.325.488.813-.162 1.138l-7.479 4.39c-.488.325-1.301.325-1.951.162zm-47.638-27.639l-10.243-5.854c-.488-.325-.488-.812.162-1.138l7.479-4.39c.651-.325 1.463-.325 1.951-.162l10.243 5.853c.488.325.488.813-.162 1.138l-7.479 4.39c-.651.488-1.464.488-1.951.163z"/><path opacity=".8" d="M265.232 294.319l44.224 25.527c.487.325.487.813 0 1.138l-7.642 4.39c-.488.325-1.463.325-1.951 0l-44.224-25.527 9.593-5.528zm85.196 54.792l7.154 4.065c.488.163.325.65-.163.976l-3.089 1.788a1.478 1.478 0 01-1.626 0l-7.154-4.065c-.487-.162-.325-.65.163-.975l3.089-1.789a1.478 1.478 0 011.626 0zm-9.918-5.853l7.154 4.065c.488.163.325.65-.163.975l-3.089 1.789a1.478 1.478 0 01-1.626 0l-7.153-4.065c-.488-.162-.326-.65.162-.975l3.089-1.789a2.78 2.78 0 011.626 0zm-9.918-5.69l7.154 4.064c.488.163.325.651-.162.976l-3.09 1.788a1.472 1.472 0 01-1.625 0l-7.154-4.064c-.488-.163-.325-.651.162-.976l3.09-1.788c.487-.163 1.3-.163 1.625 0zm15.283 2.601l7.154 4.065c.488.162.325.65-.163.975l-3.089 1.789a1.478 1.478 0 01-1.626 0l-7.153-4.065c-.488-.163-.326-.65.162-.975l3.089-1.789c.488-.163 1.301-.163 1.626 0z"/></g><path d="M446.355 187.175c-.488 0-.976-.163-1.463-.488-1.464-.813-2.439-2.764-2.114-4.39.163-.813.65-1.301 1.301-1.626.65-.325 1.626-.162 2.438.325 1.464.813 2.439 2.764 2.114 4.39-.162.813-.65 1.301-1.301 1.626-.487 0-.65.163-.975.163zm-1.463-6.016c-.163 0-.488 0-.651.162a1.225 1.225 0 00-.813 1.139c-.325 1.3.488 2.926 1.789 3.577.65.325 1.301.487 1.788.162.488-.163.813-.65.813-1.138.325-1.301-.488-2.927-1.788-3.577-.488-.163-.813-.325-1.138-.325zm9.592 10.568c-.488 0-.975-.163-1.463-.488-1.464-.813-2.439-2.764-2.114-4.39.163-.813.65-1.3 1.301-1.625.65-.326 1.626-.163 2.439.325 1.463.813 2.438 2.764 2.113 4.39-.162.813-.65 1.3-1.3 1.625-.488.163-.813.163-.976.163zm-1.463-5.853c-.163 0-.488 0-.651.162a1.225 1.225 0 00-.813 1.139c-.325 1.3.488 2.926 1.789 3.577.65.325 1.301.487 1.788.162.488-.162.813-.65.813-1.138.326-1.301-.487-2.927-1.788-3.577-.488-.163-.813-.325-1.138-.325zm11.218 8.78c-.326 1.463-1.789 1.951-3.089 1.138-1.464-.813-2.277-2.602-1.952-4.065.326-1.463 1.789-1.951 3.09-1.138 1.463.813 2.276 2.601 1.951 4.065zm-155.433-89.586l-4.39-2.439.325-1.951 4.39 2.439-.325 1.951zm6.341 3.74l-4.39-2.602.325-1.951 4.39 2.439-.325 2.114zm-12.681-7.317l-9.43-5.528.325-1.95 9.43 5.527-.325 1.951z" fill="#42E8E0"/><path opacity=".4" d="M243.824 113.128c10.887-6.286 10.868-26.7-.042-45.596-10.91-18.896-28.58-29.119-39.466-22.833-10.887 6.285-10.868 26.7.042 45.596 10.91 18.896 28.58 29.118 39.466 22.833z" fill="#42E8E0"/><path d="M236.618 115.311c-3.902 0-8.129-1.301-12.682-3.902-15.446-8.942-28.127-30.729-28.127-48.776 0-8.78 2.926-15.283 8.291-18.373 5.366-3.089 12.52-2.438 20.161 1.952 15.446 8.942 28.128 30.728 28.128 48.776 0 8.779-2.927 15.283-8.292 18.372-2.276 1.463-4.715 1.951-7.479 1.951zM211.58 43.122c-2.602 0-5.041.65-7.154 1.789-5.203 2.926-7.967 9.267-7.967 17.884 0 17.722 12.519 39.347 27.802 48.126 7.317 4.228 14.308 4.878 19.348 1.951 5.203-2.926 7.967-9.267 7.967-17.884 0-17.722-12.519-39.346-27.802-48.126-4.228-2.439-8.455-3.74-12.194-3.74z" fill="#42E8E0"/><path d="M221.01 124.091c-3.902 0-8.13-1.301-12.682-3.902-15.446-8.943-28.128-30.73-28.128-48.776 0-8.78 2.927-15.284 8.292-18.373 5.366-3.089 12.52-2.439 20.161 1.951 15.446 8.943 28.128 30.73 28.128 48.776 0 8.78-2.927 15.284-8.292 18.373-2.276 1.463-4.715 1.951-7.479 1.951zm-25.039-72.189c-2.601 0-5.04.65-7.153 1.788-5.203 2.927-7.967 9.268-7.967 17.722 0 17.722 12.519 39.347 27.802 48.126 7.317 4.228 14.308 4.878 19.348 1.951 5.203-2.926 7.967-9.267 7.967-17.884 0-17.722-12.519-39.346-27.803-48.126-4.227-2.276-8.292-3.577-12.194-3.577z" fill="#42E8E0"/><path d="M174.347 193.028v-8.13l9.593-48.288-9.43-5.853-19.023 10.568v62.271c0 4.227 1.626 6.991 3.902 7.967l8.455 5.365.975-4.065 1.464-7.316c2.438-3.577 4.064-8.292 4.064-12.519z" fill="url(#paint27_linear)"/><path d="M174.185 216.603c-5.203 2.926-9.43-.325-9.43-7.154v-62.271l19.023-10.568v62.271c0 6.991-4.227 14.795-9.593 17.722z" fill="url(#paint28_linear)"/><path d="M160.852 174.33l-.325-.162c-.651-.326-1.138-.326-1.464 0l-2.113 1.3 1.463.326v12.356c0 1.626.976 3.577 2.276 4.227l-.488 1.626 2.114-1.3c.488-.163.813-.976.813-1.951V178.72c-.163-1.788-1.138-3.739-2.276-4.39z" fill="url(#paint29_linear)"/><path opacity=".3" d="M160.852 174.33l-.325-.162c-.651-.326-1.138-.326-1.464 0l-2.113 1.3 1.463.326v12.356c0 1.626.976 3.577 2.276 4.227l-.488 1.626 2.114-1.3c.488-.163.813-.976.813-1.951V178.72c-.163-1.788-1.138-3.739-2.276-4.39z" fill="#0F054C"/><path d="M158.575 193.515l-.325-.162c-1.3-.65-2.276-2.601-2.276-4.227v-12.032c0-1.626.976-2.439 2.276-1.788l.325.162c1.301.651 2.277 2.602 2.277 4.228v12.031c0 1.789-.976 2.601-2.277 1.788z" fill="#fff"/><path opacity=".3" d="M174.185 216.603c5.203-2.927 9.43-10.893 9.43-17.722v-59.182l-9.105 1.951-8.78 4.878-1.951-2.276-8.129 3.089-.813 16.421v.325c0 5.04 3.739 9.268 8.617 10.081l.976.162v35.119c.325 6.829 4.552 10.08 9.755 7.154z" fill="#0F054C"/><path d="M216.945 111.084c.488-15.609-10.08-34.956-23.412-43.086-7.154-4.39-13.658-4.715-18.21-1.626L131.587 90.11l32.355 61.295 45.036-24.388c.163-.162.326-.162.488-.325l.163-.162c4.552-2.602 7.154-7.967 7.316-15.446z" fill="url(#paint30_radial)"/><path opacity=".3" d="M216.945 111.084c.325-9.268-3.252-19.836-9.105-28.615-6.503 3.739-19.673 11.055-44.386 25.2-6.178 3.577-12.032 6.667-17.559 9.268l18.209 34.306 45.037-24.388c.163-.163.325-.163.488-.325l.162-.163c4.39-2.439 6.992-7.804 7.154-15.283z" fill="#0F054C"/><path d="M172.071 135.309c-.488 15.609-11.544 21.624-24.876 13.495s-23.737-27.477-23.412-43.086c.488-15.608 11.544-21.624 24.876-13.494 13.332 8.129 23.9 27.477 23.412 43.085z" fill="url(#paint31_radial)"/><path d="M172.395 136.285c.488-16.259-10.405-36.257-24.225-44.874-6.341-3.902-12.194-4.715-16.584-2.927h-.325c-.163.163-.325.163-.651.325-26.989 12.357-51.215 11.056-80.805 9.105l-8.455-.487 65.198 119.013 3.902-6.991c14.145-25.689 29.103-40.809 53.816-56.743 4.878-2.439 7.967-8.129 8.129-16.421z" fill="url(#paint32_linear)"/><path opacity=".3" d="M110.612 209.449c14.145-25.689 29.103-40.809 53.817-56.743 4.715-2.439 7.804-8.129 7.966-16.421.325-9.268-3.251-19.836-8.779-28.778h-.163c-40.809 23.25-65.36 26.989-65.36 26.989l-11.381 36.095 3.414 15.933 16.422 29.916 4.064-6.991z" fill="#0F054C"/><path d="M115.328 190.264c.813-31.217-19.999-69.75-46.5-86.009-13.333-8.13-25.364-9.267-34.469-4.39l-8.13 4.553 2.765-.488c-5.853 5.853-9.43 15.121-9.755 27.315-.813 31.216 19.998 69.75 46.5 86.008 10.405 6.341 20.16 8.455 28.29 6.666l-1.301 1.789 7.479-4.065h.163l.325-.163c8.617-5.04 14.307-15.77 14.633-31.216z" fill="url(#paint33_linear)"/><path d="M109.637 193.515c.813-31.216-19.998-69.749-46.5-86.008-13.007-7.967-25.038-9.268-33.98-4.553l-1.301.651c-.488.325-.813.488-1.301.813l2.439-.488c-5.853 5.853-9.43 15.121-9.755 27.315-.813 31.216 19.998 69.75 46.5 86.008 10.405 6.341 20.16 8.455 28.29 6.666l-1.138 1.626c9.755-4.39 16.258-15.608 16.746-32.03z" fill="#fff"/><path d="M108.011 194.328c-.813 31.217-23.087 43.249-49.589 26.827-26.502-16.258-47.475-54.792-46.5-86.008.813-31.217 23.088-43.248 49.59-26.827 26.5 16.421 47.312 54.954 46.499 86.008z" fill="url(#paint34_linear)"/><path d="M101.996 190.752c-.813 27.314-20.324 37.882-43.574 23.575-23.25-14.308-41.622-48.126-40.81-75.441.814-27.314 20.324-37.883 43.574-23.575 23.25 14.308 41.623 48.126 40.81 75.441z" fill="url(#paint35_radial)"/><path opacity=".3" d="M65.9 210.75c-3.577-2.114-6.828-4.715-10.08-7.642-6.666-6.178-7.154-16.584-1.138-23.412 7.316-7.967 18.86-18.698 36.744-30.242-7.479-14.145-18.047-26.826-30.24-34.305-10.244-6.341-19.836-7.805-27.315-5.203-.326.162-.488.162-.813.325h-.163c-.325.162-.488.162-.813.325h-.163c-.325.163-.487.325-.812.325-.65.325-1.139.651-1.626.976-.326.162-.488.325-.65.488 0 0-.163 0-.163.162-.163.163-.488.325-.65.488l-.163.162c-.163.163-.488.326-.65.488l-.163.163-1.463 1.463c-.163.163-.326.488-.65.65l-.163.163c-.163.163-.325.325-.488.65l-.163.163c-.162.163-.325.488-.487.65l-.163.163c-.163.325-.325.488-.488.813l-.488.975v.163c-.162.325-.325.488-.487.813 0 .162-.163.162-.163.325-.162.163-.162.488-.325.65 0 .163-.163.163-.163.326-.162.162-.162.487-.325.65 0 .163-.162.163-.162.325-.163.325-.163.488-.326.813v.163c-.162.325-.325.65-.325 1.138v.162c-.162.325-.162.651-.325.976 0 .162 0 .162-.163.325 0 .325-.162.488-.162.813 0 .163 0 .325-.163.488 0 .325-.162.487-.162.813 0 .162 0 .325-.163.487 0 .326-.162.651-.162.813v.326c-.163.487-.163.812-.163 1.3v.163c0 .325-.163.813-.163 1.138v.488c0 .325 0 .65-.162.813v.487c0 .326 0 .651-.163.813v8.943c0 .65.163 1.138.163 1.788v.65c0 .813.162 1.464.325 2.277 0 .325.163.65.163.975 0 .488.162.976.162 1.463 0 .326.163.813.163 1.139 0 .487.162.812.162 1.3 0 .325.163.813.163 1.138.163.651.325 1.301.488 1.789.162.488.325 1.138.487 1.626 0 .325.163.65.163.975l.488 1.463c0 .326.162.488.162.813.488 1.789 1.139 3.74 1.789 5.528 0 .163 0 .163.162.326.163.65.488 1.138.65 1.788 0 .163.163.325.163.488 7.154 18.21 19.999 35.281 34.794 44.549 13.007 7.966 24.713 8.292 32.843 2.113-7.642 1.789-16.422.163-25.852-5.69z" fill="#0F054C"/><path d="M53.707 154.332l63.572-46.337 16.096 46.5-68.45 21.298-11.218-21.461z" fill="url(#paint36_linear)"/><path d="M68.177 169.94c-.163 5.528-4.065 7.642-8.78 4.715-4.715-2.926-8.292-9.592-8.13-15.12.163-5.528 4.065-7.642 8.78-4.715 4.716 2.926 8.292 9.755 8.13 15.12z" fill="url(#paint37_radial)"/><path opacity=".3" d="M74.355 144.414c6.016 3.74 10.894 12.519 10.731 19.673 0 2.602-.813 4.715-2.114 6.016l51.703-14.796-16.746-48.125-48.776 35.606c1.788 0 3.414.651 5.202 1.626z" fill="#0F054C"/><path d="M446.03 279.199l-14.958-8.292c-3.414-1.951-6.341-6.016-7.316-10.243l-13.007-53.491c-1.463-6.341-6.666-10.893-10.243-11.056h-.163c-1.788 0-2.926.975-3.577 2.927l-3.902 12.031c-.487 1.301-1.3 2.276-2.438 2.764-1.464.488-3.09.325-4.878-.813l-2.764-1.626c-3.089-1.788-6.016-5.69-6.991-9.755-1.789-6.178-6.504-10.243-9.918-10.568h-.325c-1.464 0-2.602.813-3.415 2.276l-4.227 9.105c-.488 1.138-1.301 1.788-2.439 2.113-1.3.488-2.926.163-4.715-.812l-3.089-1.789c-3.414-1.951-6.341-6.178-7.316-10.406l-13.007-57.718c-1.463-6.341-6.504-11.056-10.243-11.218-1.789-.163-3.089.812-3.902 2.601l-20.974 57.393c-.488 1.301-1.301 2.114-2.439 2.602-1.301.487-3.089.162-4.877-.813l-10.569-6.179.163-.162 10.568 6.178c1.626.976 3.252 1.301 4.553.813.975-.325 1.788-1.138 2.276-2.439l20.974-57.393c.65-1.789 1.951-2.927 3.739-2.927h.325c3.74.326 8.943 5.041 10.406 11.544l13.007 57.718c.975 4.228 3.902 8.455 7.154 10.243l3.089 1.789c1.626.975 3.252 1.301 4.552.813.976-.325 1.789-.976 2.276-2.114l4.228-9.105c.813-1.626 2.276-2.601 4.064-2.438 3.577.325 8.455 4.552 10.081 10.73 1.138 3.902 3.902 7.804 6.991 9.593l2.764 1.626c1.788.975 3.414 1.301 4.715.813 1.138-.488 1.788-1.301 2.276-2.602l3.902-12.031c.651-2.114 2.114-3.089 4.065-3.089 3.739.162 8.942 4.715 10.568 11.218l13.007 53.491c.976 4.228 3.902 8.292 7.154 10.081l14.958 8.292-.163.325z" fill="#42E8E0"/><path d="M434.649 285.702l-14.958-8.292c-3.414-1.951-6.341-6.015-7.316-10.243l-13.007-53.491c-1.464-6.341-6.666-10.893-10.243-11.056-1.789 0-3.09.976-3.74 2.927l-3.902 12.031c-.488 1.301-1.301 2.277-2.439 2.764-1.463.488-3.089.326-4.877-.813l-2.764-1.625c-3.089-1.789-6.016-5.691-6.992-9.756-1.788-6.178-6.503-10.243-9.917-10.568-1.789-.162-3.09.651-3.74 2.276l-4.227 9.105c-.488 1.138-1.301 1.789-2.439 2.114-1.301.488-2.927.163-4.715-.813l-3.089-1.788c-3.414-1.952-6.341-6.179-7.317-10.406L315.96 140.35c-1.463-6.341-6.503-11.056-10.243-11.219-1.788-.163-3.089.813-3.902 2.601l-20.973 57.394c-.488 1.3-1.301 2.113-2.439 2.601-1.301.488-3.089.163-4.878-.813l-10.568-6.178.163-.163 10.568 6.179c1.626.975 3.252 1.3 4.552.812.976-.325 1.789-1.138 2.276-2.438l20.974-57.394c.651-1.951 2.114-2.926 4.065-2.926 3.739.325 8.942 5.04 10.405 11.544l13.007 57.718c.976 4.227 3.902 8.455 7.154 10.243l3.089 1.788c1.626.976 3.252 1.301 4.553.813.975-.325 1.788-.975 2.276-2.113l4.227-9.105c.813-1.626 2.277-2.602 4.065-2.439 3.577.325 8.455 4.552 10.08 10.731 1.138 3.902 3.903 7.804 6.992 9.592l2.764 1.626c1.788.976 3.414 1.301 4.715.813 1.138-.488 1.788-1.3 2.276-2.601l3.902-12.032c.65-1.951 1.951-3.089 3.902-3.089h.163c3.739.163 8.942 4.715 10.568 11.219l13.007 53.491c.975 4.227 3.902 8.292 7.154 10.08l14.958 8.292-.163.325z" fill="#42E8E0"/><path d="M314.883 122.507l-11.422 6.555.323.564 11.422-6.555-.323-.564zm48.43 68.65l-11.555 6.65.324.564 11.555-6.65-.324-.564zm35.449 4.781l-12.128 6.958.324.564 12.128-6.958-.324-.564z" fill="#42E8E0"/><path d="M445.868 279.362l-14.958-8.292c-3.415-1.951-6.341-6.016-7.479-10.406l-13.007-53.491c-1.464-6.178-6.504-10.731-10.081-10.893-1.788 0-2.926.812-3.577 2.764l-3.739 12.031c-.488 1.463-1.301 2.439-2.602 2.927-1.463.487-3.251.325-5.04-.813l-2.764-1.626c-3.252-1.789-6.016-5.691-7.154-9.756-1.626-6.015-6.341-10.08-9.755-10.405-1.626-.163-2.926.65-3.577 2.114l-4.227 9.104a4.025 4.025 0 01-2.601 2.277c-1.464.487-3.09.162-4.878-.813l-3.089-1.789c-3.415-1.951-6.341-6.178-7.317-10.568l-13.007-57.718c-1.463-6.341-6.341-10.894-10.08-11.056-1.788-.163-2.927.813-3.577 2.601l-20.974 57.393c-.487 1.301-1.3 2.277-2.601 2.764-1.463.488-3.252.163-5.04-.813l-10.568-6.178.325-.65 10.568 6.178c1.626.976 3.252 1.138 4.39.813.975-.325 1.788-1.138 2.113-2.276l20.974-57.393c.813-2.114 2.276-3.09 4.39-2.927 3.902.325 9.105 5.04 10.568 11.706l13.007 57.719c.976 4.064 3.74 8.292 6.991 10.08l3.089 1.789c1.626.975 3.09 1.138 4.39.812.976-.325 1.626-.975 2.114-1.951l4.227-9.104c.813-1.789 2.276-2.602 4.228-2.439 3.576.325 8.617 4.552 10.242 10.893 1.139 3.902 3.903 7.642 6.829 9.43l2.764 1.626c1.626.976 3.252 1.301 4.553.813.975-.325 1.788-1.301 2.113-2.439l3.902-12.031c.651-2.114 2.277-3.252 4.228-3.252 3.902.163 9.104 4.715 10.73 11.381l13.007 53.491c.976 4.065 3.902 8.13 7.154 9.918l14.958 8.292-.162.163z" fill="#42E8E0"/><path d="M434.486 286.028l-14.958-8.292c-3.414-1.951-6.34-6.016-7.479-10.406l-13.007-53.491c-1.463-6.178-6.503-10.731-10.08-10.893-1.788 0-2.927.813-3.577 2.764l-3.739 11.868c-.488 1.464-1.301 2.439-2.602 2.927-1.463.488-3.252.325-5.04-.813l-2.764-1.626c-3.252-1.788-6.016-5.69-7.154-9.755-1.626-6.016-6.341-10.08-9.755-10.406-1.626-.162-2.927.651-3.577 2.114l-4.227 9.105a4.023 4.023 0 01-2.602 2.276c-1.463.488-3.089.163-4.877-.813l-3.089-1.788c-3.415-1.951-6.341-6.179-7.317-10.568l-13.007-57.719c-1.463-6.341-6.341-10.893-10.08-11.056-1.789-.162-2.927.813-3.577 2.602l-20.974 57.393c-.488 1.301-1.3 2.276-2.601 2.764-1.463.488-3.252.162-5.04-.813l-10.569-6.178.326-.651 10.568 6.179c1.626.975 3.252 1.138 4.39.812.975-.325 1.788-1.138 2.113-2.276l20.974-57.393c.813-2.114 2.276-3.089 4.39-2.927 3.902.326 9.105 5.041 10.568 11.707l13.007 57.718c.976 4.065 3.739 8.292 6.991 10.081l3.089 1.788c1.626.976 3.09 1.138 4.39.813.976-.325 1.626-.976 2.114-1.951l4.227-9.105c.813-1.788 2.276-2.601 4.227-2.439 3.577.325 8.618 4.553 10.243 10.894 1.138 3.902 3.902 7.641 6.829 9.43l2.764 1.625c1.626.976 3.252 1.301 4.552.813.976-.325 1.789-1.3 2.114-2.438l3.902-12.032c.651-2.113 2.114-3.252 4.065-3.252h.162c3.903.163 9.105 4.715 10.731 11.382l13.007 53.491c.976 4.064 3.902 8.129 7.154 9.918l14.958 8.291-.163.326z" fill="#42E8E0"/><path opacity=".5" d="M274.501 178.07l10.568 6.178c3.252 1.789 6.016 1.138 7.154-1.788l20.974-57.394c2.439-6.503 12.194-.65 14.307 8.617l13.007 57.719c.976 4.227 3.902 8.454 7.154 10.405l3.089 1.789c2.927 1.788 5.691 1.301 6.829-1.301l4.227-9.105c2.602-5.69 11.544-.325 13.983 8.292 1.138 4.065 3.902 7.804 6.991 9.593l2.764 1.626c3.252 1.951 6.178 1.138 7.154-1.951l3.902-12.032c2.276-6.828 12.031-1.138 14.308 8.13l13.007 53.491c.975 4.227 3.902 8.292 7.316 10.243l14.958 8.292L274.501 178.07z" fill="url(#paint38_linear)"/><path opacity=".5" d="M263.282 184.411l10.568 6.178c3.252 1.788 6.016 1.138 7.154-1.789l20.973-57.393c2.439-6.503 12.194-.65 14.308 8.617l13.007 57.719c.976 4.227 3.902 8.454 7.154 10.405l3.089 1.789c2.927 1.788 5.691 1.301 6.829-1.301l4.227-9.105c2.601-5.69 11.544-.325 13.983 8.292 1.138 4.065 3.902 7.804 6.991 9.593l2.764 1.626c3.251 1.951 6.178 1.138 7.154-1.951l3.902-12.032c2.276-6.828 12.031-1.138 14.307 8.13l13.007 53.491c.976 4.227 3.902 8.292 7.317 10.243l14.958 8.292-171.692-100.804z" fill="url(#paint39_linear)"/><path opacity=".4" d="M88.772 218.176c17.057-9.233 17.925-40.658 1.94-70.191-15.986-29.533-42.772-45.99-59.829-36.758-17.056 9.232-17.924 40.658-1.939 70.191 15.986 29.533 42.772 45.99 59.828 36.758z" fill="#42E8E0"/><path d="M496.27 145.39c-17.072 0-33.981-3.74-46.988-11.219-12.682-7.316-19.673-17.071-19.673-27.477 0-10.406 6.991-20.16 19.673-27.477 26.014-15.12 68.286-15.12 94.3-.163 12.682 7.317 19.674 17.072 19.674 27.477 0 10.406-6.992 20.161-19.674 27.478-13.007 7.479-30.078 11.381-47.312 11.381zm.325-76.741c-17.072 0-34.144 3.74-46.988 11.218-12.357 7.154-19.348 16.747-19.185 26.827 0 10.08 6.828 19.673 19.348 26.827 25.851 14.795 67.961 14.795 93.65-.163 12.356-7.154 19.348-16.746 19.185-26.827 0-10.08-6.828-19.673-19.348-26.827-12.844-7.478-29.753-11.055-46.662-11.055z" fill="#78BBDC"/><path d="M413.187 30.116c3.089-1.789 5.528-.326 5.528 3.251s-2.439 7.804-5.528 9.593c-3.089 1.788-5.528.325-5.528-3.252s2.602-7.804 5.528-9.592z" fill="url(#paint40_linear)"/><path d="M413.512 30.278c-3.089 1.788-5.528 6.016-5.528 9.593 0 1.626.488 2.926 1.464 3.414-1.138-.488-1.789-1.788-1.789-3.74 0-3.576 2.439-7.804 5.528-9.592 1.626-.976 3.089-.976 4.065-.325-.976-.326-2.276-.163-3.74.65z" fill="#fff"/><path d="M400.018 22.474c3.089-1.789 5.528-.325 5.528 3.252 0 3.576-2.439 7.804-5.528 9.592-3.089 1.789-5.528.325-5.528-3.252 0-3.576 2.439-7.804 5.528-9.592z" fill="url(#paint41_linear)"/><path d="M386.524 14.67c3.089-1.789 5.528-.325 5.528 3.251 0 3.577-2.439 7.805-5.528 9.593-3.09 1.788-5.528.325-5.528-3.252 0-3.414 2.438-7.804 5.528-9.592z" fill="url(#paint42_linear)"/><path d="M409.286 43.285l6.828 3.902c-.975-.65-1.625-1.788-1.625-3.577 0-3.577 2.438-7.804 5.528-9.592 1.463-.813 2.764-.976 3.902-.488l29.265 16.746-7.804 13.658-85.846-49.264c-3.739-2.114-5.04-6.992-2.926-10.731 2.113-3.74 6.991-5.04 10.73-2.927l23.25 13.332c-.975-.65-2.439-.65-4.064.326-3.09 1.788-5.528 6.015-5.528 9.592 0 1.789.65 3.09 1.626 3.577l6.828 3.902c-.975-.65-1.626-1.788-1.626-3.577 0-3.577 2.439-7.804 5.528-9.592 1.464-.813 2.764-.976 3.902-.488l6.829 3.902c-.976-.65-2.439-.65-4.065.325-3.089 1.789-5.528 6.016-5.528 9.593 0 1.788.651 3.09 1.626 3.577l6.829 3.902c-.976-.65-1.626-1.789-1.626-3.577 0-3.577 2.439-7.804 5.528-9.593 1.463-.813 2.764-.975 3.902-.487l6.504 3.74c-.976-.651-2.439-.651-4.065.324-3.089 1.789-5.528 6.016-5.528 9.593 0 2.114.65 3.414 1.626 3.902z" fill="#BCBEFF"/><path d="M400.343 22.637c-3.089 1.788-5.528 6.015-5.528 9.592 0 1.626.488 2.927 1.464 3.414-1.139-.487-1.789-1.788-1.789-3.74 0-3.576 2.439-7.803 5.528-9.592 1.626-.975 3.089-.975 4.065-.325-.976-.325-2.276-.163-3.74.65zm-13.494-7.805c-3.089 1.789-5.528 6.016-5.528 9.593 0 1.626.488 2.927 1.463 3.414-1.138-.487-1.788-1.788-1.788-3.74 0-3.576 2.438-7.803 5.528-9.592 1.625-.975 3.089-.975 4.064-.325-.975-.163-2.276-.163-3.739.65z" fill="#fff"/><path opacity=".48" d="M420.179 34.018c-3.089 1.788-5.528 6.015-5.528 9.592 0 1.789.65 3.09 1.626 3.577l-6.829-3.902c-.975-.65-1.626-1.788-1.626-3.577 0-3.577 2.439-7.804 5.528-9.592 1.626-.976 2.927-.976 4.065-.326l6.666 3.902c-1.138-.65-2.439-.487-3.902.326z" fill="url(#paint43_linear)"/><path opacity=".48" d="M406.847 26.376c-3.089 1.788-5.528 6.016-5.528 9.593 0 1.788.65 3.089 1.626 3.576l-6.829-3.902c-.976-.65-1.626-1.788-1.626-3.577 0-3.576 2.439-7.804 5.528-9.592 1.626-.976 2.927-.976 4.065-.325l6.666 3.902c-.976-.65-2.276-.488-3.902.325z" fill="url(#paint44_linear)"/><path opacity=".48" d="M393.515 18.734c-3.09 1.789-5.528 6.016-5.528 9.593 0 1.788.65 3.09 1.625 3.577l-6.828-3.902c-.976-.65-1.626-1.789-1.626-3.577 0-3.577 2.439-7.804 5.528-9.593 1.626-.975 2.926-.975 4.065-.325l6.666 3.902c-1.138-.65-2.439-.65-3.902.325z" fill="url(#paint45_linear)"/><path d="M445.705 87.834v1.3l16.909 14.146 27.477 10.243 19.348-4.39 18.535-5.366 18.86-14.47.488-.325c0-1.138 0-2.276-.163-3.414 3.252-4.39 6.666-8.78 9.918-13.333 1.463 1.952 2.764 3.903 3.739 5.854l2.276-1.789v12.194c-.325 9.593-6.666 19.186-19.347 26.502-26.014 15.121-67.962 15.121-93.976.163-12.844-7.479-19.348-17.072-19.51-26.827V75.965l2.439 1.951c.487-1.138 1.3-2.276 1.951-3.577 2.601 5.203 5.528 11.381 11.056 13.495z" fill="url(#paint46_linear)"/><path d="M542.282 60.194c.325.163.65.325 1.138.65 5.853 3.415 10.405 7.317 13.657 11.381-3.252 4.39-6.666 8.78-9.918 13.333-.975-6.666-5.853-13.17-14.633-18.21-19.835-11.381-52.027-11.381-71.863.162-9.755 5.691-14.633 13.007-14.796 20.486-5.365-2.113-8.292-8.291-11.381-13.332 2.439-3.577 5.853-7.154 10.243-10.243l-2.276.488s15.608-13.495 16.259-13.657c.65-.163 31.867-8.455 31.867-8.455l35.281 3.09 16.422 14.307z" fill="url(#paint47_linear)"/><path opacity=".5" d="M531.388 59.381c19.836 11.381 19.836 29.916 0 41.46s-52.028 11.544-71.864.162c-19.835-11.38-19.835-29.916 0-41.46C479.36 48 511.552 48 531.388 59.382z" fill="url(#paint48_linear)"/><path opacity=".48" d="M531.225 62.958c19.836 11.381 19.836 29.916 0 41.46-19.836 11.543-52.028 11.543-71.864.162-19.835-11.38-19.835-29.916 0-41.46 19.836-11.543 52.028-11.706 71.864-.162z" fill="url(#paint49_linear)"/><path d="M543.42 48.976c-26.014-14.958-68.124-14.796-93.975.162-26.014 15.12-25.852 39.346.162 54.304 26.014 14.958 68.124 14.796 93.976-.162 25.851-15.12 25.851-39.346-.163-54.304zm-11.056 6.34c19.836 11.382 19.836 29.916 0 41.46-19.835 11.544-52.028 11.544-71.863.163-19.836-11.381-19.836-29.916 0-41.46 19.835-11.544 51.865-11.544 71.863-.163z" fill="#BCBEFF"/><path d="M543.42 48.976c-26.014-14.958-68.124-14.796-93.975.162-26.014 15.12-25.852 39.346.162 54.304 26.014 14.958 68.124 14.796 93.976-.162 25.851-15.12 25.851-39.346-.163-54.304zm-11.056 6.34c19.836 11.382 19.836 29.916 0 41.46-19.835 11.544-52.028 11.544-71.863.163-19.836-11.381-19.836-29.916 0-41.46 19.835-11.544 51.865-11.544 71.863-.163z" fill="#BCBEFF"/><path d="M449.12 102.304c26.014 14.958 68.124 14.796 93.975-.162 15.934-9.268 22.112-21.95 18.373-33.981 4.389 12.194-1.626 25.526-18.048 34.956-26.013 15.121-67.961 15.121-93.975.163-9.918-5.69-16.096-12.845-18.535-20.324 2.602 7.154 8.617 13.983 18.21 19.348z" fill="#fff"/><path d="M460.176 54.504c19.836-11.544 52.028-11.544 71.864-.163 7.641 4.39 12.356 9.918 14.145 15.608-1.951-5.365-6.504-10.405-13.82-14.633-19.836-11.38-52.028-11.38-71.864.163-12.194 6.991-16.746 16.746-14.145 25.851-3.414-9.43 1.138-19.51 13.82-26.826z" fill="#fff"/><path d="M397.466 419.115l-.319.567 35.703 20.096.319-.566-35.703-20.097z" fill="#78BBDC"/><path d="M454.972 501.13c-1.626 0-3.414-.487-4.877-1.3l-56.906-32.843c-.975-.488-1.463-1.463-1.463-2.439 0-.975.488-1.951 1.463-2.439l84.22-48.613c2.927-1.789 6.666-1.789 9.756 0l56.905 32.842c.976.488 1.463 1.464 1.463 2.439 0 .976-.487 1.951-1.463 2.439l-84.22 48.614c-1.463.813-3.252 1.3-4.878 1.3zm27.315-88.284c-1.626 0-3.089.325-4.552 1.138l-84.221 48.613c-.65.325-1.138 1.138-1.138 1.951 0 .813.488 1.464 1.138 1.951l56.906 32.843c2.764 1.626 6.178 1.626 9.105 0l84.22-48.614c.65-.325 1.138-1.138 1.138-1.951 0-.813-.488-1.463-1.138-1.951l-56.906-32.842c-1.463-.813-3.089-1.138-4.552-1.138z" fill="#42E8E0"/><path d="M468.629 445.851l-8.942-5.203 2.276-1.138 8.942 5.04-2.276 1.301z" fill="#78BBDC"/><path opacity=".5" d="M476.271 450.241l-4.553-2.602 2.276-1.3 4.553 2.601-2.276 1.301zm-12.844-1.301l-8.943-5.203 2.277-1.301 8.942 5.203-2.276 1.301zm7.641 4.39l-4.553-2.602 2.276-1.3 4.553 2.601-2.276 1.301z" fill="#78BBDC"/><path d="M458.224 451.867l-8.943-5.203 2.277-1.301 8.942 5.203-2.276 1.301zm7.641 4.389l-4.553-2.601 2.276-1.301 4.553 2.602-2.276 1.3zm-12.845-1.3l-8.942-5.203 2.276-1.301 8.942 5.203-2.276 1.301zm7.643 4.389l-4.553-2.601 2.276-1.301 4.553 2.602-2.276 1.3zm-12.845-1.463l-8.942-5.203 2.276-1.3 8.942 5.203-2.276 1.3zm7.642 4.39l-4.552-2.601 2.276-1.301 4.552 2.601-2.276 1.301zm-12.845-1.463l-8.942-5.04 2.276-1.301 8.942 5.203-2.276 1.138zm7.642 4.552l-4.553-2.601 2.276-1.301 4.553 2.602-2.276 1.3zm-12.844-1.463l-8.943-5.203 2.277-1.301 8.942 5.203-2.276 1.301z" fill="#78BBDC"/><path opacity=".5" d="M445.054 468.288l-4.552-2.602 2.276-1.3 4.552 2.601-2.276 1.301z" fill="#78BBDC"/><path d="M432.21 466.824l-8.943-5.04 2.277-1.3 8.942 5.202-2.276 1.138z" fill="#78BBDC"/><path opacity=".5" d="M439.851 471.377l-4.552-2.601 2.276-1.301 4.552 2.601-2.276 1.301z" fill="#78BBDC"/><path d="M488.464 457.394l-8.942-5.04 2.276-1.3 8.942 5.04-2.276 1.3zm7.643 4.39l-4.553-2.601 2.276-1.138 4.553 2.439-2.276 1.3zm-12.845-1.3l-8.942-5.203 2.276-1.301 8.942 5.203-2.276 1.301zm7.641 4.389l-4.552-2.601 2.276-1.301 4.553 2.602-2.277 1.3zm-12.843-1.463l-8.943-5.203 2.277-1.138 8.942 5.04-2.276 1.301zm7.64 4.39l-4.552-2.601 2.276-1.138 4.553 2.438-2.277 1.301zm-1.462-30.892l-8.942-5.202 2.114-1.301 8.942 5.203-2.114 1.3zm7.479 4.39l-4.39-2.601 2.276-1.301 4.39 2.602-2.276 1.3zm-12.682-1.463l-8.942-5.04 2.114-1.301 8.942 5.203-2.114 1.138zm7.479 4.552l-4.39-2.601 2.276-1.301 4.39 2.602-2.276 1.3zm-12.682-1.463l-8.943-5.203 2.114-1.3 8.942 5.202-2.113 1.301zm7.479 4.39l-4.389-2.601 2.276-1.301 4.39 2.601-2.277 1.301zm22.762 1.138l-8.942-5.203 2.113-1.138 8.943 5.04-2.114 1.301zm7.479 4.39l-4.39-2.601 2.276-1.301 4.39 2.601-2.276 1.301z" fill="#78BBDC"/><path opacity=".5" d="M498.871 451.541l-8.942-5.202 2.114-1.301 8.942 5.203-2.114 1.3z" fill="#78BBDC"/><path d="M506.35 455.931l-4.39-2.601 2.276-1.301 4.39 2.601-2.276 1.301zm-12.682-1.463l-8.943-5.203 2.114-1.301 8.942 5.203-2.113 1.301zm7.478 4.39l-4.389-2.602 2.276-1.3 4.39 2.601-2.277 1.301zm-28.289 7.641l-8.942-5.202 2.276-1.301 8.942 5.203-2.276 1.3zm7.641 4.39l-4.552-2.601 2.276-1.301 4.553 2.601-2.277 1.301z" fill="#78BBDC"/><path opacity=".5" d="M467.654 469.426l-8.943-5.203 2.277-1.138 8.942 5.04-2.276 1.301z" fill="#78BBDC"/><path d="M475.295 473.816l-4.552-2.602 2.276-1.3 4.552 2.601-2.276 1.301zm-12.844-1.301l-8.943-5.203 2.277-1.3 8.942 5.202-2.276 1.301zm7.642 4.39l-4.552-2.602 2.276-1.3 4.552 2.601-2.276 1.301zm-12.844-1.463l-8.943-5.203 2.276-1.301 8.943 5.203-2.276 1.301zm7.641 4.389l-4.552-2.601 2.276-1.301 4.552 2.602-2.276 1.3zm-12.682-1.463l-8.942-5.04 2.113-1.301 8.943 5.04-2.114 1.301zm7.479 4.39l-4.39-2.601 2.276-1.139 4.39 2.439-2.276 1.301zm52.841-54.142l-.325-.487 30.729-18.373c1.138-.65 1.951-1.951 1.951-3.414s-.813-2.601-1.951-3.252l-38.696-22.112c-1.463-.813-2.276-2.276-2.276-3.902 0-1.626.813-3.089 2.276-3.902l93.325-53.654c1.138-.65 1.789-1.788 1.789-3.089 0-1.3-.651-2.438-1.789-3.089l-15.933-9.43c-4.878-2.926-7.967-8.292-7.967-13.982V152.218c0-5.528-2.927-10.73-7.804-13.494l-15.771-9.268.325-.488 15.771 9.268c5.04 2.926 8.129 8.292 8.129 13.982V289.93c0 5.528 2.927 10.73 7.804 13.494l15.934 9.43c1.3.813 1.951 2.114 1.951 3.577 0 1.464-.813 2.764-2.114 3.577l-93.325 53.654c-1.138.65-1.951 1.951-1.951 3.414 0 1.464.65 2.602 1.951 3.415l38.696 22.112c1.463.812 2.276 2.276 2.276 3.739 0 1.626-.813 3.089-2.113 3.902l-30.892 18.372z" fill="#78BBDC"/><defs><linearGradient id="paint0_linear" x1="413.283" y1="220.121" x2="407.705" y2="210.502" gradientUnits="userSpaceOnUse"><stop stop-color="#5761D7"/><stop offset=".165" stop-color="#5E67DA"/><stop offset=".405" stop-color="#727AE2"/><stop offset=".692" stop-color="#9297EE"/><stop offset="1" stop-color="#BCBEFF"/></linearGradient><linearGradient id="paint1_linear" x1="400.044" y1="212.511" x2="394.466" y2="202.892" gradientUnits="userSpaceOnUse"><stop stop-color="#5761D7"/><stop offset=".165" stop-color="#5E67DA"/><stop offset=".405" stop-color="#727AE2"/><stop offset=".692" stop-color="#9297EE"/><stop offset="1" stop-color="#BCBEFF"/></linearGradient><linearGradient id="paint2_linear" x1="386.574" y1="204.768" x2="380.997" y2="195.148" gradientUnits="userSpaceOnUse"><stop stop-color="#5761D7"/><stop offset=".165" stop-color="#5E67DA"/><stop offset=".405" stop-color="#727AE2"/><stop offset=".692" stop-color="#9297EE"/><stop offset="1" stop-color="#BCBEFF"/></linearGradient><linearGradient id="paint3_linear" x1="410.828" y1="221.363" x2="418.662" y2="207.736" gradientUnits="userSpaceOnUse"><stop stop-color="#42E8E0"/><stop offset=".151" stop-color="#43E3E0"/><stop offset=".329" stop-color="#45D5DF"/><stop offset=".52" stop-color="#49BDDD"/><stop offset=".721" stop-color="#4E9CDB"/><stop offset=".927" stop-color="#5472D8"/><stop offset="1" stop-color="#5761D7"/></linearGradient><linearGradient id="paint4_linear" x1="397.59" y1="213.753" x2="405.424" y2="200.126" gradientUnits="userSpaceOnUse"><stop stop-color="#42E8E0"/><stop offset=".151" stop-color="#43E3E0"/><stop offset=".329" stop-color="#45D5DF"/><stop offset=".52" stop-color="#49BDDD"/><stop offset=".721" stop-color="#4E9CDB"/><stop offset=".927" stop-color="#5472D8"/><stop offset="1" stop-color="#5761D7"/></linearGradient><linearGradient id="paint5_linear" x1="384.12" y1="206.009" x2="391.954" y2="192.382" gradientUnits="userSpaceOnUse"><stop stop-color="#42E8E0"/><stop offset=".151" stop-color="#43E3E0"/><stop offset=".329" stop-color="#45D5DF"/><stop offset=".52" stop-color="#49BDDD"/><stop offset=".721" stop-color="#4E9CDB"/><stop offset=".927" stop-color="#5472D8"/><stop offset="1" stop-color="#5761D7"/></linearGradient><linearGradient id="paint6_linear" x1="444.86" y1="296.956" x2="546.54" y2="238.237" gradientUnits="userSpaceOnUse"><stop stop-color="#BCBEFF"/><stop offset=".308" stop-color="#9297EE"/><stop offset=".595" stop-color="#727AE2"/><stop offset=".836" stop-color="#5E67DA"/><stop offset="1" stop-color="#5761D7"/></linearGradient><linearGradient id="paint7_linear" x1="545.646" y1="226.413" x2="442.015" y2="272.33" gradientUnits="userSpaceOnUse"><stop stop-color="#5761D7"/><stop offset=".165" stop-color="#5E67DA"/><stop offset=".405" stop-color="#727AE2"/><stop offset=".692" stop-color="#9297EE"/><stop offset="1" stop-color="#BCBEFF"/></linearGradient><linearGradient id="paint8_linear" x1="477.584" y1="288.515" x2="513.399" y2="226.212" gradientUnits="userSpaceOnUse"><stop stop-color="#42E8E0"/><stop offset=".151" stop-color="#43E3E0"/><stop offset=".329" stop-color="#45D5DF"/><stop offset=".52" stop-color="#49BDDD"/><stop offset=".721" stop-color="#4E9CDB"/><stop offset=".927" stop-color="#5472D8"/><stop offset="1" stop-color="#5761D7"/></linearGradient><linearGradient id="paint9_linear" x1="477.497" y1="292.07" x2="513.312" y2="229.767" gradientUnits="userSpaceOnUse"><stop stop-color="#42E8E0"/><stop offset=".151" stop-color="#43E3E0"/><stop offset=".329" stop-color="#45D5DF"/><stop offset=".52" stop-color="#49BDDD"/><stop offset=".721" stop-color="#4E9CDB"/><stop offset=".927" stop-color="#5472D8"/><stop offset="1" stop-color="#5761D7"/></linearGradient><linearGradient id="paint11_linear" x1="161.221" y1="394.68" x2="101.962" y2="303.667" gradientUnits="userSpaceOnUse"><stop stop-color="#BCBEFF"/><stop offset=".124" stop-color="#B4B6FC"/><stop offset=".321" stop-color="#9CA1F2"/><stop offset=".565" stop-color="#777EE4"/><stop offset=".744" stop-color="#5761D7"/></linearGradient><linearGradient id="paint12_linear" x1="102.315" y1="428.439" x2="56.279" y2="314.454" gradientUnits="userSpaceOnUse"><stop stop-color="#BCBEFF"/><stop offset=".227" stop-color="#AAADF8"/><stop offset=".68" stop-color="#7C83E5"/><stop offset="1" stop-color="#5761D7"/></linearGradient><linearGradient id="paint13_linear" x1="48.8" y1="421.913" x2="98.278" y2="337.532" gradientUnits="userSpaceOnUse"><stop stop-color="#E9E9FD"/><stop offset=".36" stop-color="#D3D2F9"/><stop offset=".706" stop-color="#C5C4F7"/><stop offset="1" stop-color="#C0BFF6"/></linearGradient><linearGradient id="paint15_linear" x1="89.752" y1="397.075" x2="131.93" y2="329.481" gradientUnits="userSpaceOnUse"><stop stop-color="#E9E9FD"/><stop offset=".36" stop-color="#D3D2F9"/><stop offset=".706" stop-color="#C5C4F7"/><stop offset="1" stop-color="#C0BFF6"/></linearGradient><linearGradient id="paint17_linear" x1="154.823" y1="260.887" x2="179.362" y2="260.887" gradientUnits="userSpaceOnUse"><stop stop-color="#BCBEFF"/><stop offset=".227" stop-color="#AAADF8"/><stop offset=".68" stop-color="#7C83E5"/><stop offset="1" stop-color="#5761D7"/></linearGradient><linearGradient id="paint18_linear" x1="163.381" y1="263.435" x2="182.507" y2="263.435" gradientUnits="userSpaceOnUse"><stop stop-color="#BCBEFF"/><stop offset=".227" stop-color="#AAADF8"/><stop offset=".68" stop-color="#7C83E5"/><stop offset="1" stop-color="#5761D7"/></linearGradient><linearGradient id="paint19_linear" x1="448.755" y1="348.789" x2="117.792" y2="348.789" gradientUnits="userSpaceOnUse"><stop stop-color="#5761D7"/><stop offset=".178" stop-color="#5C66D9"/><stop offset=".388" stop-color="#6A73DF"/><stop offset=".613" stop-color="#8289E8"/><stop offset=".849" stop-color="#A3A7F5"/><stop offset="1" stop-color="#BCBEFF"/></linearGradient><linearGradient id="paint20_linear" x1="343.754" y1="341.084" x2="12.791" y2="341.084" gradientUnits="userSpaceOnUse"><stop stop-color="#C0BFF6"/><stop offset=".294" stop-color="#C5C4F7"/><stop offset=".64" stop-color="#D3D2F9"/><stop offset="1" stop-color="#E9E9FD"/></linearGradient><linearGradient id="paint21_linear" x1="486.278" y1="195.904" x2="252.065" y2="195.904" gradientUnits="userSpaceOnUse"><stop stop-color="#C0BFF6"/><stop offset=".294" stop-color="#C5C4F7"/><stop offset=".64" stop-color="#D3D2F9"/><stop offset="1" stop-color="#E9E9FD"/></linearGradient><linearGradient id="paint22_linear" x1="486.277" y1="255.969" x2="446.061" y2="255.969" gradientUnits="userSpaceOnUse"><stop stop-color="#5761D7"/><stop offset=".178" stop-color="#5C66D9"/><stop offset=".388" stop-color="#6A73DF"/><stop offset=".613" stop-color="#8289E8"/><stop offset=".849" stop-color="#A3A7F5"/><stop offset="1" stop-color="#BCBEFF"/></linearGradient><linearGradient id="paint23_linear" x1="454.898" y1="321.505" x2="124.112" y2="321.505" gradientUnits="userSpaceOnUse"><stop stop-color="#5761D7"/><stop offset=".178" stop-color="#5C66D9"/><stop offset=".388" stop-color="#6A73DF"/><stop offset=".613" stop-color="#8289E8"/><stop offset=".849" stop-color="#A3A7F5"/><stop offset="1" stop-color="#BCBEFF"/></linearGradient><linearGradient id="paint24_linear" x1="343.754" y1="312.46" x2="12.791" y2="312.46" gradientUnits="userSpaceOnUse"><stop stop-color="#C0BFF6"/><stop offset=".294" stop-color="#C5C4F7"/><stop offset=".64" stop-color="#D3D2F9"/><stop offset="1" stop-color="#E9E9FD"/></linearGradient><linearGradient id="paint25_linear" x1="582.098" y1="248.705" x2="251.312" y2="248.705" gradientUnits="userSpaceOnUse"><stop stop-color="#5761D7"/><stop offset=".178" stop-color="#5C66D9"/><stop offset=".388" stop-color="#6A73DF"/><stop offset=".613" stop-color="#8289E8"/><stop offset=".849" stop-color="#A3A7F5"/><stop offset="1" stop-color="#BCBEFF"/></linearGradient><linearGradient id="paint26_linear" x1="470.952" y1="239.66" x2="139.989" y2="239.66" gradientUnits="userSpaceOnUse"><stop stop-color="#C0BFF6"/><stop offset=".294" stop-color="#C5C4F7"/><stop offset=".64" stop-color="#D3D2F9"/><stop offset="1" stop-color="#E9E9FD"/></linearGradient><linearGradient id="paint27_linear" x1="154.494" y1="173.359" x2="182.79" y2="174.137" gradientUnits="userSpaceOnUse"><stop stop-color="#BCBEFF"/><stop offset=".227" stop-color="#AAADF8"/><stop offset=".68" stop-color="#7C83E5"/><stop offset="1" stop-color="#5761D7"/></linearGradient><linearGradient id="paint28_linear" x1="104.095" y1="175.16" x2="193.937" y2="177.632" gradientUnits="userSpaceOnUse"><stop stop-color="#BCBEFF"/><stop offset=".227" stop-color="#AAADF8"/><stop offset=".68" stop-color="#7C83E5"/><stop offset="1" stop-color="#5761D7"/></linearGradient><linearGradient id="paint29_linear" x1="156.743" y1="183.748" x2="163.093" y2="183.748" gradientUnits="userSpaceOnUse"><stop stop-color="#BCBEFF"/><stop offset=".227" stop-color="#AAADF8"/><stop offset=".68" stop-color="#7C83E5"/><stop offset="1" stop-color="#5761D7"/></linearGradient><linearGradient id="paint32_linear" x1="93.544" y1="82.494" x2="139.392" y2="180.948" gradientUnits="userSpaceOnUse"><stop stop-color="#BCBEFF"/><stop offset=".124" stop-color="#B4B6FC"/><stop offset=".321" stop-color="#9CA1F2"/><stop offset=".565" stop-color="#777EE4"/><stop offset=".744" stop-color="#5761D7"/></linearGradient><linearGradient id="paint33_linear" x1="33.722" y1="114.598" x2="106.054" y2="213.997" gradientUnits="userSpaceOnUse"><stop stop-color="#BCBEFF"/><stop offset=".227" stop-color="#AAADF8"/><stop offset=".68" stop-color="#7C83E5"/><stop offset="1" stop-color="#5761D7"/></linearGradient><linearGradient id="paint34_linear" x1="10.929" y1="163.457" x2="108.708" y2="166.147" gradientUnits="userSpaceOnUse"><stop stop-color="#E9E9FD"/><stop offset=".36" stop-color="#D3D2F9"/><stop offset=".706" stop-color="#C5C4F7"/><stop offset="1" stop-color="#C0BFF6"/></linearGradient><linearGradient id="paint36_linear" x1="53.681" y1="141.86" x2="133.354" y2="141.86" gradientUnits="userSpaceOnUse"><stop stop-color="#E9E9FD"/><stop offset=".36" stop-color="#D3D2F9"/><stop offset=".706" stop-color="#C5C4F7"/><stop offset="1" stop-color="#C0BFF6"/></linearGradient><linearGradient id="paint38_linear" x1="302.557" y1="153.795" x2="510.94" y2="278.076" gradientUnits="userSpaceOnUse"><stop stop-color="#42E8E0"/><stop offset=".105" stop-color="#37B6BF"/><stop offset=".22" stop-color="#2C87A1"/><stop offset=".338" stop-color="#235F87"/><stop offset=".459" stop-color="#1C3F72"/><stop offset=".582" stop-color="#162561"/><stop offset=".711" stop-color="#121355"/><stop offset=".846" stop-color="#10084E"/><stop offset="1" stop-color="#0F054C"/></linearGradient><linearGradient id="paint39_linear" x1="291.223" y1="160.157" x2="438.497" y2="248.039" gradientUnits="userSpaceOnUse"><stop stop-color="#42E8E0"/><stop offset=".105" stop-color="#37B6BF"/><stop offset=".22" stop-color="#2C87A1"/><stop offset=".338" stop-color="#235F87"/><stop offset=".459" stop-color="#1C3F72"/><stop offset=".582" stop-color="#162561"/><stop offset=".711" stop-color="#121355"/><stop offset=".846" stop-color="#10084E"/><stop offset="1" stop-color="#0F054C"/></linearGradient><linearGradient id="paint40_linear" x1="413.282" y1="42.91" x2="407.704" y2="33.291" gradientUnits="userSpaceOnUse"><stop stop-color="#5761D7"/><stop offset=".165" stop-color="#5E67DA"/><stop offset=".405" stop-color="#727AE2"/><stop offset=".692" stop-color="#9297EE"/><stop offset="1" stop-color="#BCBEFF"/></linearGradient><linearGradient id="paint41_linear" x1="400.044" y1="35.3" x2="394.466" y2="25.681" gradientUnits="userSpaceOnUse"><stop stop-color="#5761D7"/><stop offset=".165" stop-color="#5E67DA"/><stop offset=".405" stop-color="#727AE2"/><stop offset=".692" stop-color="#9297EE"/><stop offset="1" stop-color="#BCBEFF"/></linearGradient><linearGradient id="paint42_linear" x1="386.574" y1="27.556" x2="380.996" y2="17.937" gradientUnits="userSpaceOnUse"><stop stop-color="#5761D7"/><stop offset=".165" stop-color="#5E67DA"/><stop offset=".405" stop-color="#727AE2"/><stop offset=".692" stop-color="#9297EE"/><stop offset="1" stop-color="#BCBEFF"/></linearGradient><linearGradient id="paint43_linear" x1="410.828" y1="44.152" x2="418.662" y2="30.525" gradientUnits="userSpaceOnUse"><stop stop-color="#42E8E0"/><stop offset=".151" stop-color="#43E3E0"/><stop offset=".329" stop-color="#45D5DF"/><stop offset=".52" stop-color="#49BDDD"/><stop offset=".721" stop-color="#4E9CDB"/><stop offset=".927" stop-color="#5472D8"/><stop offset="1" stop-color="#5761D7"/></linearGradient><linearGradient id="paint44_linear" x1="397.59" y1="36.542" x2="405.424" y2="22.915" gradientUnits="userSpaceOnUse"><stop stop-color="#42E8E0"/><stop offset=".151" stop-color="#43E3E0"/><stop offset=".329" stop-color="#45D5DF"/><stop offset=".52" stop-color="#49BDDD"/><stop offset=".721" stop-color="#4E9CDB"/><stop offset=".927" stop-color="#5472D8"/><stop offset="1" stop-color="#5761D7"/></linearGradient><linearGradient id="paint45_linear" x1="384.119" y1="28.798" x2="391.953" y2="15.171" gradientUnits="userSpaceOnUse"><stop stop-color="#42E8E0"/><stop offset=".151" stop-color="#43E3E0"/><stop offset=".329" stop-color="#45D5DF"/><stop offset=".52" stop-color="#49BDDD"/><stop offset=".721" stop-color="#4E9CDB"/><stop offset=".927" stop-color="#5472D8"/><stop offset="1" stop-color="#5761D7"/></linearGradient><linearGradient id="paint46_linear" x1="444.859" y1="119.745" x2="546.539" y2="61.026" gradientUnits="userSpaceOnUse"><stop stop-color="#BCBEFF"/><stop offset=".308" stop-color="#9297EE"/><stop offset=".595" stop-color="#727AE2"/><stop offset=".836" stop-color="#5E67DA"/><stop offset="1" stop-color="#5761D7"/></linearGradient><linearGradient id="paint47_linear" x1="545.646" y1="49.202" x2="442.014" y2="95.119" gradientUnits="userSpaceOnUse"><stop stop-color="#5761D7"/><stop offset=".165" stop-color="#5E67DA"/><stop offset=".405" stop-color="#727AE2"/><stop offset=".692" stop-color="#9297EE"/><stop offset="1" stop-color="#BCBEFF"/></linearGradient><linearGradient id="paint48_linear" x1="477.583" y1="111.304" x2="513.398" y2="49.001" gradientUnits="userSpaceOnUse"><stop stop-color="#42E8E0"/><stop offset=".151" stop-color="#43E3E0"/><stop offset=".329" stop-color="#45D5DF"/><stop offset=".52" stop-color="#49BDDD"/><stop offset=".721" stop-color="#4E9CDB"/><stop offset=".927" stop-color="#5472D8"/><stop offset="1" stop-color="#5761D7"/></linearGradient><linearGradient id="paint49_linear" x1="477.496" y1="114.859" x2="513.311" y2="52.556" gradientUnits="userSpaceOnUse"><stop stop-color="#42E8E0"/><stop offset=".151" stop-color="#43E3E0"/><stop offset=".329" stop-color="#45D5DF"/><stop offset=".52" stop-color="#49BDDD"/><stop offset=".721" stop-color="#4E9CDB"/><stop offset=".927" stop-color="#5472D8"/><stop offset="1" stop-color="#5761D7"/></linearGradient><radialGradient id="paint10_radial" cx="0" cy="0" r="1" gradientUnits="userSpaceOnUse" gradientTransform="rotate(-59.614 422.03 11.143) scale(98.9356)"><stop stop-color="#E9E9FD"/><stop offset=".36" stop-color="#D3D2F9"/><stop offset=".706" stop-color="#C5C4F7"/><stop offset="1" stop-color="#C0BFF6"/></radialGradient><radialGradient id="paint14_radial" cx="0" cy="0" r="1" gradientUnits="userSpaceOnUse" gradientTransform="translate(97.533 414.812) scale(111.63)"><stop stop-color="#BCBEFF"/><stop offset=".227" stop-color="#AAADF8"/><stop offset=".68" stop-color="#7C83E5"/><stop offset="1" stop-color="#5761D7"/></radialGradient><radialGradient id="paint16_radial" cx="0" cy="0" r="1" gradientUnits="userSpaceOnUse" gradientTransform="rotate(-58.036 405.32 135.953) scale(63.7356)"><stop stop-color="#BCBEFF"/><stop offset=".227" stop-color="#AAADF8"/><stop offset=".68" stop-color="#7C83E5"/><stop offset="1" stop-color="#5761D7"/></radialGradient><radialGradient id="paint30_radial" cx="0" cy="0" r="1" gradientUnits="userSpaceOnUse" gradientTransform="rotate(1.576 -2251.636 4933.541) scale(98.9351)"><stop stop-color="#E9E9FD"/><stop offset=".36" stop-color="#D3D2F9"/><stop offset=".706" stop-color="#C5C4F7"/><stop offset="1" stop-color="#C0BFF6"/></radialGradient><radialGradient id="paint31_radial" cx="0" cy="0" r="1" gradientUnits="userSpaceOnUse" gradientTransform="rotate(31.576 -139.216 321.847) scale(28.3358 24.5403)"><stop stop-color="#F9636B"/><stop offset="1" stop-color="#B6246E"/></radialGradient><radialGradient id="paint35_radial" cx="0" cy="0" r="1" gradientUnits="userSpaceOnUse" gradientTransform="rotate(1.576 -7246.4 3115.417) scale(111.689)"><stop stop-color="#BCBEFF"/><stop offset=".227" stop-color="#AAADF8"/><stop offset=".68" stop-color="#7C83E5"/><stop offset="1" stop-color="#5761D7"/></radialGradient><radialGradient id="paint37_radial" cx="0" cy="0" r="1" gradientUnits="userSpaceOnUse" gradientTransform="translate(36.948 148.326) scale(63.736)"><stop stop-color="#BCBEFF"/><stop offset=".227" stop-color="#AAADF8"/><stop offset=".68" stop-color="#7C83E5"/><stop offset="1" stop-color="#5761D7"/></radialGradient></defs></svg>