<svg width="661" height="672" fill="none" xmlns="http://www.w3.org/2000/svg"><path d="M245.337 373.848h-58.182c-3.006 0-5.463 2.209-5.463 4.912v28.543c0 2.704 2.457 4.913 5.463 4.913h41.568l8.469 7.615v-7.615h8.178c3.006 0 5.462-2.209 5.462-4.913V378.76c-.032-2.703-2.489-4.912-5.495-4.912z" fill="url(#paint0_radial)"/><path d="M203.995 395.532c1.75 0 3.168-1.276 3.168-2.849 0-1.573-1.418-2.849-3.168-2.849-1.749 0-3.167 1.276-3.167 2.849 0 1.573 1.418 2.849 3.167 2.849zm12.251 0c1.75 0 3.168-1.276 3.168-2.849 0-1.573-1.418-2.849-3.168-2.849-1.749 0-3.168 1.276-3.168 2.849 0 1.573 1.419 2.849 3.168 2.849zm12.251 0c1.749 0 3.167-1.276 3.167-2.849 0-1.573-1.418-2.849-3.167-2.849-1.75 0-3.168 1.276-3.168 2.849 0 1.573 1.418 2.849 3.168 2.849z" fill="#fff"/><path d="M233.603 404.978h34.36c1.778 0 3.233 1.308 3.233 2.907v16.859c0 1.598-1.455 2.906-3.233 2.906H243.43l-5.01 4.477v-4.506h-4.817c-1.777 0-3.232-1.308-3.232-2.906v-16.859c0-1.57 1.455-2.878 3.232-2.878z" fill="url(#paint1_linear)"/><path d="M256.133 416.111c0 .93.84 1.686 1.875 1.686 1.034 0 1.874-.756 1.874-1.686 0-.93-.84-1.686-1.874-1.686-1.035 0-1.875.756-1.875 1.686zm-7.24 0c0 .93.84 1.686 1.874 1.686 1.035 0 1.875-.756 1.875-1.686 0-.93-.84-1.686-1.875-1.686-1.034 0-1.874.756-1.874 1.686zm-7.208 0c0 .93.84 1.686 1.874 1.686 1.035 0 1.875-.756 1.875-1.686 0-.93-.84-1.686-1.875-1.686-1.066 0-1.874.756-1.874 1.686z" fill="#fff"/><path d="M401.644 671.586H205.159V557.768h179.037l17.448 113.818z" fill="url(#paint2_linear)"/><path d="M486.224 306.464l-6.117-11.662c-4.612-8.864 0-19.278 10.328-23.28l112.757-43.376c10.329-3.958 22.462 0 27.124 8.865l6.117 11.661c4.612 8.865 0 19.279-10.328 23.281l-112.757 43.375c-10.328 4.002-22.461.043-27.124-8.864z" fill="url(#paint3_linear)"/><path d="M519.865 260.248v50.82s26.121-9.165 25.52-9.811c-.602-.645-.602-50.605-.602-50.605l-24.918 9.596z" fill="url(#paint4_linear)"/><path d="M275.049 405.179l105.888-69.841 76.809 186.327s-36.048 71.992-154.42 71.992l-28.277-188.478z" fill="url(#paint5_linear)"/><path opacity=".13" d="M307.888 518.868s-.301 10.628 64.325 10.069c64.626-.559 81.021 0 81.021 0l4.562-7.272-149.908-2.797z" fill="#1B1E4C"/><path d="M519.816 143.719v344.553c0 18.073-17.047 32.704-38.104 32.704H321.526c-21.057 0-38.104-14.631-38.104-32.704V143.719c0-18.073 17.047-32.704 38.104-32.704h160.186c21.057 0 38.104 14.631 38.104 32.704z" fill="#fff"/><path d="M481.712 521.234H321.525c-21.157 0-38.354-14.76-38.354-32.919V143.718c0-18.159 17.197-32.919 38.354-32.919h160.187c21.157 0 38.354 14.76 38.354 32.919v344.554c0 18.202-17.197 32.962-38.354 32.962zM321.525 111.23c-20.856 0-37.853 14.587-37.853 32.488v344.554c0 8.692 3.961 16.825 11.08 22.979 7.17 6.153 16.646 9.51 26.773 9.51h160.187c10.127 0 19.603-3.4 26.772-9.51 7.17-6.154 11.081-14.287 11.081-22.979V143.718c0-17.901-16.997-32.488-37.853-32.488H321.525z" fill="#5B71A8"/><path d="M512.044 143.503v345.07c0 14.243-13.436 25.776-30.032 25.776H321.225c-16.596 0-30.032-11.533-30.032-25.776v-345.07c0-14.243 13.436-25.776 30.032-25.776h160.787c16.596 0 30.032 11.533 30.032 25.776z" fill="url(#paint6_linear)"/><g opacity=".24"><g opacity=".24"><path opacity=".24" d="M462.61 352.422H320.924v4.905H462.61v-4.905z" fill="#fff"/><path opacity=".24" d="M462.911 357.543H320.674v-5.336h142.187v5.336h.05zm-141.736-.431h141.184v-4.475H321.175v4.475z" fill="#0F0F0F"/></g><g opacity=".24"><path opacity=".24" d="M462.611 362.663H320.925v4.906h141.686v-4.906z" fill="#fff"/><path opacity=".24" d="M462.911 367.784H320.674v-5.336h142.187v5.336h.05zm-141.736-.431H462.36v-4.475H321.175v4.475z" fill="#0F0F0F"/></g><g opacity=".24"><path opacity=".24" d="M462.611 372.948H320.925v4.905h141.686v-4.905z" fill="#fff"/><path opacity=".24" d="M462.911 378.026H320.674v-5.336h142.187v5.336h.05zm-141.736-.431H462.36v-4.475H321.175v4.475z" fill="#0F0F0F"/></g></g><g opacity=".24"><g opacity=".24"><path opacity=".24" d="M462.61 387.708H320.924v4.905H462.61v-4.905z" fill="#fff"/><path opacity=".24" d="M462.911 392.828H320.674v-5.336h142.187v5.336h.05zm-141.736-.43h141.184v-4.475H321.175v4.475z" fill="#0F0F0F"/></g><g opacity=".24"><path opacity=".24" d="M462.611 397.949H320.925v4.906h141.686v-4.906z" fill="#fff"/><path opacity=".24" d="M462.911 403.07H320.674v-5.336h142.187v5.336h.05zm-141.736-.431H462.36v-4.475H321.175v4.475z" fill="#0F0F0F"/></g><g opacity=".24"><path opacity=".24" d="M462.611 408.19H320.925v4.906h141.686v-4.906z" fill="#fff"/><path opacity=".24" d="M462.911 413.311H320.674v-5.336h142.187v5.336h.05zm-141.736-.43H462.36v-4.475H321.175v4.475z" fill="#0F0F0F"/></g></g><g opacity=".24"><g opacity=".24"><path opacity=".24" d="M382.943 425.962h-62.019v4.906h62.019v-4.906z" fill="#fff"/><path opacity=".24" d="M383.194 431.083h-62.52v-5.336h62.52v5.336zm-62.019-.43h61.517v-4.475h-61.517v4.475z" fill="#0F0F0F"/></g><g opacity=".24"><path opacity=".24" d="M382.944 436.203h-62.019v4.906h62.019v-4.906z" fill="#fff"/><path opacity=".24" d="M383.194 441.324h-62.52v-5.335h62.52v5.335zm-62.019-.43h61.518v-4.475h-61.518v4.475z" fill="#0F0F0F"/></g><g opacity=".24"><path opacity=".24" d="M382.944 446.445h-62.019v4.905h62.019v-4.905z" fill="#fff"/><path opacity=".24" d="M383.194 451.566h-62.52v-5.336h62.52v5.336zm-62.019-.43h61.518v-4.475h-61.518v4.475z" fill="#0F0F0F"/></g></g><g opacity=".27"><path opacity=".27" d="M484.52 280.903H321.024v55.253H484.52v-55.253z" fill="#DAEAEE"/><path opacity=".27" d="M484.77 336.371H320.774v-55.683H484.77v55.683zm-163.495-.431h162.994v-54.822H321.275v54.822z" fill="#7EA8AF"/></g><g opacity=".27"><path opacity=".27" d="M484.569 423.983h-86.836v68.635h86.836v-68.635z" fill="#DAEAEE"/><path opacity=".27" d="M484.77 492.833h-87.288v-69.065h87.338v69.065h-.05zm-86.786-.43h86.335v-68.205h-86.335v68.205z" fill="#7EA8AF"/></g><path opacity=".13" d="M519.815 330.691v154.44l-15.492 5.938c-11.932 4.605-25.97 0-31.335-10.241l-3.51-6.713c-5.364-10.242 0-22.291 11.933-26.852l8.222-3.141c-9.425.344-18.6-4.174-22.661-12.006l-3.51-6.713c-4.913-9.381-.852-20.225 9.025-25.561-9.376.302-18.4-4.217-22.512-12.005l-3.509-6.713c-5.365-10.242 0-22.291 11.932-26.852l61.417-23.581zm-214.383-44.108s23.514-.473 18.951 29.434c-4.512 29.907-42.666 75.391-42.666 75.391l-3.209-30.982 26.924-73.843z" fill="#1B1E4C"/><path d="M481.711 460.861l-6.116-11.661c-4.613-8.865 0-19.278 10.328-23.28l89.443-34.425c10.328-3.959 22.461 0 27.124 8.864l6.117 11.662c4.612 8.864 0 19.278-10.328 23.28l-89.444 34.425c-10.328 4.002-22.511 0-27.124-8.865z" fill="url(#paint7_linear)"/><path d="M516.105 460.086l-4.311 1.679c-10.429 4.002-22.662 0-27.325-8.908-4.663-8.95 0-19.45 10.429-23.452l4.311-1.678 16.896 32.359z" fill="url(#paint8_linear)"/><path d="M475.695 412.106l-6.117-11.661c-4.613-8.865 0-19.278 10.328-23.28l89.444-34.426c10.328-3.958 22.461 0 27.123 8.865l6.117 11.661c4.613 8.865 0 19.279-10.328 23.281l-89.444 34.425c-10.328 4.002-22.511.043-27.123-8.865z" fill="url(#paint9_linear)"/><path d="M510.088 411.332l-4.311 1.678c-10.429 4.002-22.662 0-27.325-8.908-4.662-8.95 0-19.45 10.429-23.452l4.311-1.678 16.896 32.36z" fill="url(#paint10_linear)"/><path d="M458.749 367.87l-6.117-11.662c-4.612-8.864 0-19.278 10.328-23.28l89.444-34.425c10.328-3.959 22.461 0 27.124 8.865l6.116 11.661c4.613 8.865 0 19.278-10.328 23.28l-89.443 34.425c-10.379 4.002-22.512 0-27.124-8.864z" fill="url(#paint11_linear)"/><path d="M493.143 367.095l-4.312 1.679c-10.428 4.001-22.662 0-27.324-8.908-4.663-8.951 0-19.45 10.428-23.452l4.312-1.678 16.896 32.359z" fill="url(#paint12_linear)"/><path d="M281.466 367.396s67.283-104.566-19.102-110.806l-57.206 142.779c-38.053 94.927 0 194.287 0 194.287h102.73V459.441c0 .043-4.813-60.675-26.422-92.045z" fill="url(#paint13_linear)"/><path d="M401.443 614.57h-212.98v57.146h212.98V614.57z" fill="#fff"/><path d="M401.744 671.931H188.213v-57.577h213.481v57.577h.05zm-213.03-.431h212.479v-56.715H188.714V671.5z" fill="#5B71A8"/><path d="M411.621 630.233H181.243v41.224h230.378v-41.224z" fill="url(#paint14_linear)"/><path d="M512.044 143.503v72.164H291.243v-72.164c0-14.243 13.436-25.776 30.031-25.776h160.788c16.545 0 29.982 11.533 29.982 25.776z" fill="url(#paint15_radial)"/><g opacity=".26"><g opacity=".26"><path opacity=".26" d="M460.905 237.7H319.219v4.905h141.686V237.7z" fill="#fff"/><path opacity=".26" d="M461.156 242.82H318.969v-5.336h142.187v5.336zm-141.686-.43h141.185v-4.475H319.47v4.475z" fill="#0F0F0F"/></g><g opacity=".26"><path opacity=".26" d="M460.905 247.985H319.219v4.905h141.686v-4.905z" fill="#fff"/><path opacity=".26" d="M461.156 253.062H318.969v-5.336h142.187v5.336zm-141.686-.431h141.184v-4.475H319.47v4.475z" fill="#0F0F0F"/></g><g opacity=".26"><path opacity=".26" d="M410.067 258.226h-90.848v4.905h90.848v-4.905z" fill="#fff"/><path opacity=".26" d="M410.317 263.346h-91.348v-5.336h91.348v5.336zm-90.847-.43h90.346v-4.475H319.47v4.475z" fill="#0F0F0F"/></g></g><path d="M593.867 148.065l-12.935-25.561 70.141-31.284-57.206 56.845z" fill="#9DBEBF"/><path d="M593.818 148.452l-13.186-26.077.2-.086 71.294-31.8-58.308 57.963zm-12.535-25.862l12.685 25.045 56.052-55.726-68.737 30.681z" fill="#5B71A8"/><path d="M593.868 127.539l33.291 20.526 23.915-56.845-57.206 36.319z" fill="#DAEDEF"/><path d="M627.309 148.41l-33.842-20.87 58.158-36.921-24.316 57.791zm-33.04-20.87l32.739 20.182 23.514-55.898-56.253 35.716z" fill="#5B71A8"/><path d="M593.868 127.539v20.526l15.291-11.102-15.291-9.424z" fill="#C4E3E8"/><path d="M593.617 148.538v-21.386l15.943 9.811-15.943 11.575zm.501-20.569v19.623l14.64-10.629-14.64-8.994z" fill="#5B71A8"/><path d="M580.932 122.505l-22.712-3.013 92.853-28.271-70.141 31.284z" fill="#DAEDEF"/><path d="M580.983 122.719h-.101l-23.714-3.141 93.805-28.53.201.387-70.191 31.284zm-21.76-3.313l21.659 2.883 66.882-29.82-88.541 26.937z" fill="#5B71A8"/><path d="M86.486 394.808H.25v101.554h86.235V394.808z" fill="#DEEFF3"/><path d="M86.736 496.577H0V394.593h86.736v101.984zm-86.235-.43h85.734V395.023H.5v101.124z" fill="#A3BBBF"/><path d="M42.366 416.323H13.788v18.934h28.578v-18.934z" fill="url(#paint16_radial)"/><path d="M73.45 456.343H44.873v18.934H73.45v-18.934z" fill="url(#paint17_radial)"/><path d="M73.45 416.323H50.387v1.722H73.45v-1.722zm0 3.873H50.387v1.721H73.45v-1.721zm0 3.873H50.387v1.722H73.45v-1.722zm0 16.783H13.539v1.721H73.45v-1.721zm0 3.872H13.539v1.721H73.45v-1.721zm0 3.873H13.539v1.722H73.45v-1.722zm-9.025-20.655H50.387v1.721h14.038v-1.721zM36.85 457.633H13.789v1.722h23.063v-1.722zm0 3.874H13.789v1.721h23.063v-1.721zm0 3.872H13.789v1.722h23.063v-1.722zm-9.024 3.873H13.788v1.721h14.038v-1.721z" fill="#fff"/><path d="M529.893 561.34v-44.108c0-6.755 6.368-12.263 14.289-12.263h97.064c7.872 0 14.289 5.465 14.289 12.263v44.108c0 6.756-6.367 12.264-14.289 12.264h-97.064c-7.921 0-14.289-5.465-14.289-12.264z" fill="url(#paint18_linear)"/><path d="M641.246 573.819h-97.064c-8.022 0-14.539-5.595-14.539-12.48v-44.107c0-6.885 6.517-12.479 14.539-12.479h97.064c8.022 0 14.54 5.594 14.54 12.479v44.107c0 6.885-6.518 12.48-14.54 12.48zm-111.102-12.48c0 6.627 6.267 12.006 13.988 12.006h97.064c7.721 0 13.988-5.379 13.988-12.006v-44.107c0-6.627-6.267-12.006-13.988-12.006h-97.064c-7.721 0-13.988 5.379-13.988 12.006v44.107z" fill="#DAEAEE"/><path d="M529.893 561.34l62.821-22.075 62.821 22.075c0 6.756-6.367 12.264-14.289 12.264h-97.064c-7.921 0-14.289-5.465-14.289-12.264z" fill="url(#paint19_linear)"/><path d="M641.247 573.819h-97.065c-8.021 0-14.539-5.594-14.539-12.479v-.172l.15-.043 62.922-22.076.1.043 62.971 22.119v.172c0 6.842-6.517 12.436-14.539 12.436zm-111.103-12.307c.1 6.541 6.368 11.877 13.988 11.877h97.065c7.67 0 13.887-5.293 13.988-11.877l-62.521-21.946-62.52 21.946z" fill="#DAEAEE"/><path d="M529.893 523.817v-6.584c0-6.756 6.368-12.264 14.289-12.264h97.064c7.872 0 14.289 5.465 14.289 12.264v6.584l-62.62 25.431-63.022-25.431z" fill="url(#paint20_linear)"/><path d="M592.864 549.506l-.1-.043-63.172-25.474v-6.756c0-6.885 6.518-12.479 14.54-12.479h97.064c8.022 0 14.539 5.594 14.539 12.479v6.756l-.15.043-62.721 25.474zm-62.72-25.818l62.72 25.302 62.37-25.302v-6.455c0-6.627-6.267-12.006-13.988-12.006h-97.064c-7.721 0-13.988 5.379-13.988 12.006v6.455h-.05z" fill="#DAEAEE"/><path d="M305.932 37.301H283.12v42.171h22.812v-42.17z" fill="#7CC1E0"/><path d="M306.334 79.86h-23.715V36.915h23.715V79.86zm-22.812-.775h21.909V37.646h-21.909v41.44z" fill="#5B71A8"/><path d="M313.553 79.473V37.302s36.851-21.86 38.605-33.135c1.755-11.317 24.567 7.531 0 33.135h26.322c16.645 0 17.548 8.305 12.283 13.555 0 0 7.019 7.53-.902 13.555 0 0 3.459 3.7-.301 7.487 0 0 3.46 5.164-.652 7.574h-75.355z" fill="#DEEFF3"/><path d="M389.11 79.86h-76.007V37.087l.2-.13c.351-.215 36.7-21.86 38.405-32.876.451-2.797 2.005-3.442 2.908-3.614 2.055-.345 4.512 1.119 6.367 3.743 4.512 6.412 5.064 18.762-7.922 32.704h25.42c7.771 0 13.085 1.85 14.89 5.25 1.404 2.582.602 5.896-2.055 8.693 1.103 1.377 6.016 8.09-.853 13.598.752.99 2.708 4.217-.351 7.487.652 1.076 2.958 5.594-.902 7.832l-.1.086zm-75.105-.775h74.854c3.509-2.194.401-6.97.401-7.014l-.15-.215.2-.215c3.459-3.486.401-6.885.251-7.014l-.251-.301.301-.259c3.158-2.41 4.211-5.293 3.259-8.649-.752-2.539-2.407-4.39-2.457-4.39l-.251-.257.251-.259c2.607-2.624 3.459-5.723 2.156-8.09-1.655-3.098-6.668-4.82-14.088-4.82h-27.275l.602-.601c13.336-13.9 12.885-26.164 8.473-32.446-1.655-2.324-3.81-3.658-5.465-3.4-1.153.215-1.955 1.248-2.206 2.97-.752 4.776-7.52 11.876-20.105 21.042-8.623 6.282-17.146 11.403-18.5 12.22v41.698z" fill="#5B71A8"/><path d="M636.333 349.237c13.623 0 24.667-9.479 24.667-21.171 0-11.693-11.044-21.172-24.667-21.172-13.624 0-24.667 9.479-24.667 21.172 0 11.692 11.043 21.171 24.667 21.171z" fill="url(#paint21_radial)"/><path d="M646.46 320.879c-5.966-4.518-10.127 2.367-10.127 2.367s-4.162-6.885-10.128-2.367c-5.966 4.519 10.128 17.342 10.128 17.342s16.094-12.78 10.127-17.342z" fill="#fff"/><path d="M167.32 159.448c57.679 0 79.09-1.568 74.237-14.109-4.852-12.542-12.306-20.946-26.913-16.722-14.607 4.18-9.205-28.784-31.516-32.442-22.311-3.658-30.815 23.559-40.02 18.333-9.254-5.226-35.317-8.187-38.569 13.151-3.252 21.381-26.163-1.132-36.618 8.274-10.355 9.406-18.86 23.515 99.399 23.515z" fill="#DAEAEE"/><path d="M139.68 180.941c28.176 0 38.655-.774 36.298-6.799-2.356-6.067-6.016-10.069-13.135-8.047-7.12 2.023-4.513-13.856-15.392-15.62-10.88-1.764-15.041 11.36-19.554 8.821-4.512-2.539-17.246-3.959-18.851 6.326-1.604 10.285-12.785-.559-17.899 4.002-5.063 4.518-9.225 11.317 48.533 11.317z" fill="#fff"/><path d="M139.68 181.156c-32.338 0-49.084-2.108-51.24-6.454-.902-1.851.752-3.701 2.557-5.25 2.257-2.023 5.616-1.162 8.874-.301 2.608.688 5.114 1.334 6.819.387 1.153-.646 1.855-1.937 2.156-3.959.551-3.572 2.557-6.153 5.766-7.444 4.712-1.851 10.779-.56 13.436.946 1.755.99 3.56-.731 5.816-2.926 3.259-3.098 7.27-6.971 13.637-5.938 5.916.946 7.972 6.024 9.576 10.112 1.454 3.572 2.557 6.412 5.666 5.551 8.272-2.323 11.631 3.572 13.436 8.219.552 1.377.452 2.496-.301 3.4-2.607 3.141-13.286 3.657-36.198 3.657zm-45.023-12.522c-1.253 0-2.406.301-3.309 1.119-1.654 1.463-3.208 3.184-2.456 4.777 2.055 4.088 19.102 6.196 50.788 6.196 22.712 0 33.291-.516 35.797-3.528.652-.775.752-1.765.251-3.013-2.808-7.186-6.768-9.639-12.835-7.917-3.56.989-4.863-2.152-6.317-5.81-1.655-4.174-3.56-8.907-9.225-9.811-6.117-.99-10.028 2.754-13.186 5.809-2.457 2.324-4.362 4.174-6.468 3.013-2.557-1.42-8.423-2.711-12.935-.904-3.108 1.248-4.963 3.615-5.515 7.1-.351 2.152-1.103 3.572-2.356 4.26-1.906 1.033-4.463.387-7.22-.344-1.705-.473-3.46-.947-5.014-.947z" fill="#5B71A8"/><path d="M336.729 155.8V181h-5.832v-10.332h-11.448V181h-5.832v-25.2h5.832v9.936h11.448V155.8h5.832zm14.782 25.488c-2.04 0-3.876-.42-5.508-1.26-1.608-.864-2.868-2.052-3.78-3.564-.912-1.512-1.368-3.228-1.368-5.148 0-1.92.456-3.636 1.368-5.148.912-1.512 2.172-2.688 3.78-3.528 1.632-.864 3.468-1.296 5.508-1.296s3.864.432 5.472 1.296c1.608.84 2.868 2.016 3.78 3.528.912 1.512 1.368 3.228 1.368 5.148 0 1.92-.456 3.636-1.368 5.148-.912 1.512-2.172 2.7-3.78 3.564-1.608.84-3.432 1.26-5.472 1.26zm0-4.608c1.44 0 2.616-.48 3.528-1.44.936-.984 1.404-2.292 1.404-3.924 0-1.632-.468-2.928-1.404-3.888-.912-.984-2.088-1.476-3.528-1.476s-2.628.492-3.564 1.476c-.936.96-1.404 2.256-1.404 3.888 0 1.632.468 2.94 1.404 3.924.936.96 2.124 1.44 3.564 1.44zm26.146-15.336c2.4 0 4.332.72 5.796 2.16 1.488 1.44 2.232 3.576 2.232 6.408V181h-5.616v-10.224c0-1.536-.336-2.676-1.008-3.42-.672-.768-1.644-1.152-2.916-1.152-1.416 0-2.544.444-3.384 1.332-.84.864-1.26 2.16-1.26 3.888V181h-5.616v-26.712h5.616v9.36c.744-.744 1.644-1.308 2.7-1.692 1.056-.408 2.208-.612 3.456-.612zm22.546 19.944c-2.04 0-3.876-.42-5.508-1.26-1.608-.864-2.868-2.052-3.78-3.564-.912-1.512-1.368-3.228-1.368-5.148 0-1.92.456-3.636 1.368-5.148.912-1.512 2.172-2.688 3.78-3.528 1.632-.864 3.468-1.296 5.508-1.296s3.864.432 5.472 1.296c1.608.84 2.868 2.016 3.78 3.528.912 1.512 1.368 3.228 1.368 5.148 0 1.92-.456 3.636-1.368 5.148-.912 1.512-2.172 2.7-3.78 3.564-1.608.84-3.432 1.26-5.472 1.26zm0-4.608c1.44 0 2.616-.48 3.528-1.44.936-.984 1.404-2.292 1.404-3.924 0-1.632-.468-2.928-1.404-3.888-.912-.984-2.088-1.476-3.528-1.476s-2.628.492-3.564 1.476c-.936.96-1.404 2.256-1.404 3.888 0 1.632.468 2.94 1.404 3.924.936.96 2.124 1.44 3.564 1.44zm19.737-12.492c.672-.936 1.572-1.644 2.7-2.124 1.152-.48 2.472-.72 3.96-.72v5.184a20.268 20.268 0 00-1.26-.072c-1.608 0-2.868.456-3.78 1.368-.912.888-1.368 2.232-1.368 4.032V181h-5.616v-19.368h5.364v2.556zm28.796 7.2c0 .072-.036.576-.108 1.512h-14.652c.264 1.2.888 2.148 1.872 2.844.984.696 2.208 1.044 3.672 1.044 1.008 0 1.896-.144 2.664-.432.792-.312 1.524-.792 2.196-1.44l2.988 3.24c-1.824 2.088-4.488 3.132-7.992 3.132-2.184 0-4.116-.42-5.796-1.26-1.68-.864-2.976-2.052-3.888-3.564-.912-1.512-1.368-3.228-1.368-5.148 0-1.896.444-3.6 1.332-5.112a9.451 9.451 0 013.708-3.564c1.584-.864 3.348-1.296 5.292-1.296 1.896 0 3.612.408 5.148 1.224a8.786 8.786 0 013.6 3.528c.888 1.512 1.332 3.276 1.332 5.292zm-10.044-5.796c-1.272 0-2.34.36-3.204 1.08-.864.72-1.392 1.704-1.584 2.952h9.54c-.192-1.224-.72-2.196-1.584-2.916-.864-.744-1.92-1.116-3.168-1.116zm23.143 15.696c-2.064 0-3.924-.42-5.58-1.26-1.632-.864-2.916-2.052-3.852-3.564-.912-1.512-1.368-3.228-1.368-5.148 0-1.92.456-3.636 1.368-5.148.936-1.512 2.22-2.688 3.852-3.528 1.656-.864 3.516-1.296 5.58-1.296 2.04 0 3.816.432 5.328 1.296 1.536.84 2.652 2.052 3.348 3.636l-4.356 2.34c-1.008-1.776-2.46-2.664-4.356-2.664-1.464 0-2.676.48-3.636 1.44s-1.44 2.268-1.44 3.924c0 1.656.48 2.964 1.44 3.924s2.172 1.44 3.636 1.44c1.92 0 3.372-.888 4.356-2.664l4.356 2.376c-.696 1.536-1.812 2.736-3.348 3.6-1.512.864-3.288 1.296-5.328 1.296zm19.721-19.944c3 0 5.304.72 6.912 2.16 1.608 1.416 2.412 3.564 2.412 6.444V181h-5.256v-2.412c-1.056 1.8-3.024 2.7-5.904 2.7-1.488 0-2.784-.252-3.888-.756-1.08-.504-1.908-1.2-2.484-2.088-.576-.888-.864-1.896-.864-3.024 0-1.8.672-3.216 2.016-4.248 1.368-1.032 3.468-1.548 6.3-1.548h4.464c0-1.224-.372-2.16-1.116-2.808-.744-.672-1.86-1.008-3.348-1.008a9.62 9.62 0 00-3.06.504c-.984.312-1.824.744-2.52 1.296l-2.016-3.924c1.056-.744 2.316-1.32 3.78-1.728a17.212 17.212 0 014.572-.612zm-.432 16.164c.96 0 1.812-.216 2.556-.648.744-.456 1.272-1.116 1.584-1.98v-1.98h-3.852c-2.304 0-3.456.756-3.456 2.268 0 .72.276 1.296.828 1.728.576.408 1.356.612 2.34.612z" fill="#fff"/><defs><linearGradient id="paint1_linear" x1="155.321" y1="329.646" x2="255.884" y2="442.552" gradientUnits="userSpaceOnUse"><stop offset=".005" stop-color="#AD2D24"/><stop offset="1" stop-color="#FBB037"/></linearGradient><linearGradient id="paint2_linear" x1="180.971" y1="597.95" x2="315.284" y2="624.777" gradientUnits="userSpaceOnUse"><stop offset=".001" stop-color="#FFF4DE"/><stop offset="1" stop-color="#D26766"/></linearGradient><linearGradient id="paint3_linear" x1="684.956" y1="228.8" x2="505.295" y2="311.523" gradientUnits="userSpaceOnUse"><stop offset=".001" stop-color="#FFF4DE"/><stop offset="1" stop-color="#D26766"/></linearGradient><linearGradient id="paint4_linear" x1="603.724" y1="287.865" x2="586.841" y2="285.617" gradientUnits="userSpaceOnUse"><stop offset=".001" stop-color="#FFF4DE"/><stop offset="1" stop-color="#D26766"/></linearGradient><linearGradient id="paint5_linear" x1="544.886" y1="485.663" x2="354.628" y2="458.703" gradientUnits="userSpaceOnUse"><stop offset=".001" stop-color="#FFF4DE"/><stop offset="1" stop-color="#D26766"/></linearGradient><linearGradient id="paint6_linear" x1="810.067" y1="650.273" x2="287.758" y2="70.029" gradientUnits="userSpaceOnUse"><stop stop-color="#304598"/><stop offset="1" stop-color="#4ABBBA"/></linearGradient><linearGradient id="paint7_linear" x1="558.442" y1="463.011" x2="534.572" y2="398.699" gradientUnits="userSpaceOnUse"><stop offset=".001" stop-color="#FFF4DE"/><stop offset="1" stop-color="#D26766"/></linearGradient><linearGradient id="paint8_linear" x1="367.884" y1="430.588" x2="711.487" y2="482.969" gradientUnits="userSpaceOnUse"><stop offset=".001" stop-color="#FFF4DE"/><stop offset="1" stop-color="#D26766"/></linearGradient><linearGradient id="paint9_linear" x1="549.688" y1="413.617" x2="531.879" y2="357.134" gradientUnits="userSpaceOnUse"><stop offset=".001" stop-color="#FFF4DE"/><stop offset="1" stop-color="#D26766"/></linearGradient><linearGradient id="paint10_linear" x1="375.087" y1="383.333" x2="718.69" y2="435.714" gradientUnits="userSpaceOnUse"><stop offset=".001" stop-color="#FFF4DE"/><stop offset="1" stop-color="#D26766"/></linearGradient><linearGradient id="paint11_linear" x1="508.509" y1="308.167" x2="523.774" y2="365.54" gradientUnits="userSpaceOnUse"><stop offset=".001" stop-color="#FFF4DE"/><stop offset="1" stop-color="#D26766"/></linearGradient><linearGradient id="paint12_linear" x1="381.435" y1="341.699" x2="725.038" y2="394.079" gradientUnits="userSpaceOnUse"><stop offset=".001" stop-color="#FFF4DE"/><stop offset="1" stop-color="#D26766"/></linearGradient><linearGradient id="paint13_linear" x1="188.255" y1="425.139" x2="307.884" y2="425.139" gradientUnits="userSpaceOnUse"><stop offset=".001" stop-color="#FFF4DE"/><stop offset="1" stop-color="#D26766"/></linearGradient><linearGradient id="paint14_linear" x1="-20.805" y1="565.812" x2="830.433" y2="875.569" gradientUnits="userSpaceOnUse"><stop stop-color="#304598"/><stop offset="1" stop-color="#4ABBBA"/></linearGradient><linearGradient id="paint18_linear" x1="583.726" y1="360.443" x2="592.241" y2="590.76" gradientUnits="userSpaceOnUse"><stop offset=".005" stop-color="#AD2D24"/><stop offset="1" stop-color="#FBB037"/></linearGradient><linearGradient id="paint19_linear" x1="590.389" y1="432.309" x2="592.82" y2="616.485" gradientUnits="userSpaceOnUse"><stop offset=".005" stop-color="#AD2D24"/><stop offset="1" stop-color="#FBB037"/></linearGradient><linearGradient id="paint20_linear" x1="755.065" y1="592.989" x2="630.752" y2="513.905" gradientUnits="userSpaceOnUse"><stop offset=".005" stop-color="#AD2D24"/><stop offset="1" stop-color="#FBB037"/></linearGradient><radialGradient id="paint0_radial" cx="0" cy="0" r="1" gradientUnits="userSpaceOnUse" gradientTransform="matrix(362.964 0 0 326.395 170.985 310.478)"><stop stop-color="#E20081"/><stop offset=".546" stop-color="#FFB048"/><stop offset="1" stop-color="#FFFC9F"/></radialGradient><radialGradient id="paint15_radial" cx="0" cy="0" r="1" gradientUnits="userSpaceOnUse" gradientTransform="matrix(770.05 0 0 660.924 290.031 47.71)"><stop stop-color="#E20081"/><stop offset=".546" stop-color="#FFB048"/><stop offset="1" stop-color="#FFFC9F"/></radialGradient><radialGradient id="paint16_radial" cx="0" cy="0" r="1" gradientUnits="userSpaceOnUse" gradientTransform="matrix(424.907 0 0 364.692 -5.475 285.876)"><stop stop-color="#E20081"/><stop offset=".546" stop-color="#FFB048"/><stop offset="1" stop-color="#FFFC9F"/></radialGradient><radialGradient id="paint17_radial" cx="0" cy="0" r="1" gradientUnits="userSpaceOnUse" gradientTransform="matrix(452.922 0 0 388.738 -4.356 325.264)"><stop stop-color="#E20081"/><stop offset=".546" stop-color="#FFB048"/><stop offset="1" stop-color="#FFFC9F"/></radialGradient><radialGradient id="paint21_radial" cx="0" cy="0" r="1" gradientUnits="userSpaceOnUse" gradientTransform="matrix(838.813 0 0 719.942 423.452 257.795)"><stop stop-color="#E20081"/><stop offset=".546" stop-color="#FFB048"/><stop offset="1" stop-color="#FFFC9F"/></radialGradient></defs></svg>