<svg width="72" height="69" fill="none" xmlns="http://www.w3.org/2000/svg"><path d="M49.6 0H27.3c-5.4 0-9.8 4.4-9.8 9.8v48.5c0 2.6 1 4.9 2.6 6.6 1.8 2 4.4 3.2 7.2 3.2h22.3c5.4 0 9.8-4.4 9.8-9.8V9.9C59.4 4.4 55 0 49.6 0zM34.2 4.9h9v1.6h-9V4.9zm23.3 51.8H20.2V8.9h37.3v47.8z" fill="#263132"/><path d="M20.1 38.6v18.1h37.4V8.9H20.1v29.7z" fill="#8ADDFF"/><path d="M36.4 62.4c0 1.3 1 2.3 2.3 2.3 1.3 0 2.3-1 2.3-2.3 0-1.3-1-2.3-2.3-2.3-1.3-.1-2.3 1-2.3 2.3zm6.8-57.5h-9v1.6h9V4.9z" fill="#151C1C"/><path d="M32.9 36.9l-2.4-2.4 10-10 2.4 2.4 3.2 1.2 6.3 6.3c0-.4.1-.9.1-1.4 0-7.5-6.1-13.6-13.6-13.6S25.3 25.5 25.3 33s6.1 13.6 13.6 13.6c.6 0 1.1 0 1.7-.1l-6.4-6.4-1.3-3.2z" fill="#00B8AC"/><path d="M52.3 34.3L46 28l-3.2-1.2-2.4-2.4-10 10 2.4 2.4L34 40l6.4 6.4c6.4-.7 11.3-5.8 11.9-12.1z" fill="#008A81"/><path d="M47.5 34.5v-3.1h-2.2c-.2-.7-.4-1.3-.8-1.8l1.6-1.6-2.2-2.2-1.6 1.6c-.6-.3-1.2-.6-1.8-.8v-2.2h-3.1v2.2c-.7.2-1.3.4-1.8.8L34 25.8 31.8 28l1.6 1.6c-.3.6-.6 1.2-.8 1.8h-2.2v3.1h2.2c.2.7.4 1.3.8 1.8l-1.6 1.6 2.2 2.2 1.6-1.6c.6.3 1.2.6 1.8.8v2.2h3.1v-2.2c.7-.2 1.3-.4 1.8-.8l1.6 1.6 2.2-2.2-1.6-1.6c.3-.6.6-1.2.8-1.8h2.2zM39 36c-1.6 0-3-1.3-3-3 0-1.6 1.3-3 3-3 1.6 0 3 1.3 3 3 0 1.6-1.4 3-3 3z" fill="#FAFEFF"/><path opacity=".77" d="M57.5 8.9H20.1v47.8L57.5 8.9z" fill="#fff"/><path d="M0 56.6c0 4.5 3.6 8.1 8.1 8.1 1.8 0 3.5-.6 4.8-1.6l-11-11.8C.8 52.7 0 54.6 0 56.6z" fill="#274347"/><path d="M26 41.8c-.4-1.3-1.7-2-3-1.7l-9.2 2.8c-3.5.7-6 3.9-5.7 7.5.4 3.9 3.8 6.7 7.6 6.3l1.8-.2v-9.8l6.8-2.1c1.3-.2 2.1-1.6 1.7-2.8z" fill="#FFCAB3"/><path d="M6.65 45.36l-5.63 4.802 12.2 14.303 5.63-4.802L6.65 45.36z" fill="#5D7A7F"/><path d="M42 32.9c0 1.7-1.3 3-3 3s-3-1.4-3-3c0-1.7 1.3-3 3-3 1.6 0 3 1.4 3 3z" fill="#00B8AC"/><path d="M71.5 57.6c-.7 4.4-4.9 7.4-9.3 6.6-1.8-.3-3.3-1.2-4.5-2.4L70.5 52c.9 1.7 1.3 3.7 1 5.6z" fill="#274347"/><path d="M64.9 52s-.3-2.5-.5-3.4c-.4-1.6-1.7-4.5-2.4-6l-.1-.1c-1.4-1.9-5.8-7.7-5.8-7.7-.6-.7-1.6-.9-2.3-.3-.6.5-.8 1.3-.5 2l-1-1.3c-.6-.7-1.6-.9-2.3-.3-.7.6-.9 1.6-.3 2.3l-1.2-1.6c-.6-.7-1.6-.9-2.3-.3-.7.5-.8 2.2-.3 2.9l-5-6c-.6-.7-1.6-.9-2.3-.3-.7.6-.9 1.6-.3 2.3l8.1 11-2.3-1.2c-.8-.4-1.8-.1-2.3.7-.4.8-.1 1.8.7 2.3 0 0 6.5 3.3 8.5 4.5.7.5 4 3.4 5.5 4.3.8.4 3.4 1.1 3.4 1.1l5-4.9z" fill="#F9B59D"/><path d="M67.635 45.69L52.35 57.637l4.31 5.515 15.286-11.948-4.311-5.516z" fill="#5D7A7F"/></svg>